<svg width="210" height="118" viewBox="0 0 210 118" fill="none" xmlns="http://www.w3.org/2000/svg">
<g id="No">
<g id="sticker_background" filter="url(#filter0_d_463_12263)">
<path d="M198.308 49.6673C191.216 37.803 177.652 29.9751 157.994 26.3997C157.679 26.3423 157.362 26.2859 157.042 26.2304C150.497 24.2566 143.583 23.5796 136.752 24.2464C132.21 24.6895 128.001 25.5491 124.141 26.8089C117.733 18.4332 105.833 16.2633 101.627 15.4981C101.066 15.3962 100.485 15.2963 99.8784 15.1988C90.9736 13.7672 84.3997 14.6299 79.5607 16.5361C74.0318 12.1462 66.3332 9.35834 54.4335 6.93335C52.8307 6.60643 51.2903 6.30886 49.8535 6.04754C39.8116 4.22112 24.1673 1.37574 16.1319 13.4965C14.2525 16.3317 13.0559 19.5042 12.4769 22.6872L6.35539 56.3443C5.55979 60.7186 5.94079 65.4022 7.73804 69.6979C12.7581 81.6964 26.5674 84.4668 31.6795 85.4938C32.1205 85.5824 32.6671 85.6863 33.0834 85.762C37.3745 86.5424 50.4667 88.923 59.5846 80.1601C61.0597 81.26 62.6424 82.3183 64.2802 83.3139C68.6073 89.5545 75.8127 93.5362 86.2686 95.4759C86.7884 95.5923 87.5498 95.7526 88.4604 95.9183C97.7821 97.6137 105.179 96.7417 110.994 93.2648C118.711 99.3142 129.732 103.523 144.846 106.271C163.944 109.745 179.056 106.98 189.76 98.0519C199.65 89.8009 202.093 79.3019 202.679 73.9471C204.015 67.3713 203.455 58.2764 198.308 49.6673Z" fill="white"/>
<path d="M198.308 49.6673C191.216 37.803 177.652 29.9751 157.994 26.3997C157.679 26.3423 157.362 26.2859 157.042 26.2304C150.497 24.2566 143.583 23.5796 136.752 24.2464C132.21 24.6895 128.001 25.5491 124.141 26.8089C117.733 18.4332 105.833 16.2633 101.627 15.4981C101.066 15.3962 100.485 15.2963 99.8784 15.1988C90.9736 13.7672 84.3997 14.6299 79.5607 16.5361C74.0318 12.1462 66.3332 9.35834 54.4335 6.93335C52.8307 6.60643 51.2903 6.30886 49.8535 6.04754C39.8116 4.22112 24.1673 1.37574 16.1319 13.4965C14.2525 16.3317 13.0559 19.5042 12.4769 22.6872L6.35539 56.3443C5.55979 60.7186 5.94079 65.4022 7.73804 69.6979C12.7581 81.6964 26.5674 84.4668 31.6795 85.4938C32.1205 85.5824 32.6671 85.6863 33.0834 85.762C37.3745 86.5424 50.4667 88.923 59.5846 80.1601C61.0597 81.26 62.6424 82.3183 64.2802 83.3139C68.6073 89.5545 75.8127 93.5362 86.2686 95.4759C86.7884 95.5923 87.5498 95.7526 88.4604 95.9183C97.7821 97.6137 105.179 96.7417 110.994 93.2648C118.711 99.3142 129.732 103.523 144.846 106.271C163.944 109.745 179.056 106.98 189.76 98.0519C199.65 89.8009 202.093 79.3019 202.679 73.9471C204.015 67.3713 203.455 58.2764 198.308 49.6673Z" stroke="#E2E2E2" stroke-width="3" stroke-miterlimit="10"/>
</g>
<g id="No_2">
<g id="No_shadow">
<path id="Vector" d="M112.198 38.2057C112.198 38.2057 110.742 35.1069 99.1146 33.2491C87.4859 31.3918 86.2902 35.1677 86.2902 35.1677L81.9224 60.5245C81.9224 60.5245 76.1244 43.8094 73.0527 38.686C69.4206 32.6281 71.3025 28.6895 49.6718 24.2557C28.0409 19.8233 30.1986 23.291 30.1986 23.291L22.6914 64.5664C22.6914 64.5664 20.3516 68.2624 33.2172 70.8609C46.0825 73.4572 45.4274 68.7017 45.4274 68.7017L51.258 34.722C51.258 34.722 56.6733 63.533 80.3309 73.761L80.1041 75.0079C80.1041 75.0079 79.2779 79.3492 91.4712 81.5112C91.4712 81.5112 104.037 84.6424 104.725 79.4861C105.414 74.3305 112.198 38.2057 112.198 38.2057Z" fill="#841E10"/>
<path id="Vector_2" d="M189.533 73.12C189.533 73.12 196.763 50.4678 156.303 43.998C152.582 42.7094 147.455 41.6705 141.364 42.349C128.428 43.789 119.357 49.6523 118.118 60.1311C116.879 70.6101 113.153 85.2237 151.25 92.1528C189.348 99.0819 189.533 73.12 189.533 73.12ZM152.186 74.5436C134.621 71.349 128.858 67.0996 129.505 63.5432C130.048 60.5602 141.218 58.5615 154.648 61.0042C168.853 63.5878 178.333 67.9499 177.545 72.2808C176.899 75.8372 170.653 77.9025 152.186 74.5436Z" fill="#841E10"/>
</g>
<g id="No_color">
<path id="Vector_3" d="M108.958 33.2717C108.958 33.2717 107.502 30.1728 95.8739 28.315C84.2452 26.4577 83.0495 30.2336 83.0495 30.2336L78.6817 55.5904C78.6817 55.5904 72.8837 38.8753 69.812 33.7519C66.1799 27.694 68.0618 23.7554 46.4311 19.3216C24.8002 14.8892 26.9579 18.3569 26.9579 18.3569L19.4507 59.6324C19.4507 59.6324 17.1108 63.3283 29.9765 65.9268C42.8418 68.5231 42.1867 63.7676 42.1867 63.7676L48.0173 29.7879C48.0173 29.7879 53.4326 58.5989 77.0901 68.827L76.8633 70.0739C76.8633 70.0739 76.0372 74.4151 88.2305 76.5771C88.2305 76.5771 100.796 79.7083 101.485 74.552C102.173 69.3964 108.958 33.2717 108.958 33.2717Z" fill="#F93B21"/>
<path id="Vector_4" d="M186.292 68.186C186.292 68.186 193.523 45.5337 153.062 39.0639C149.341 37.7753 144.215 36.7364 138.123 37.4149C125.187 38.8549 116.117 44.7182 114.877 55.197C113.639 65.676 109.912 80.2896 148.01 87.2187C186.107 94.1478 186.292 68.186 186.292 68.186ZM148.945 69.6095C131.381 66.4149 125.617 62.1655 126.264 58.6092C126.807 55.6261 137.977 53.6274 151.407 56.0701C165.612 58.6537 175.092 63.0158 174.305 67.3467C173.658 70.9031 167.412 72.9684 148.945 69.6095Z" fill="#F93B21"/>
</g>
</g>
</g>
<defs>
<filter id="filter0_d_463_12263" x="0.460693" y="2.88916" width="208.336" height="114.333" filterUnits="userSpaceOnUse" color-interpolation-filters="sRGB">
<feFlood flood-opacity="0" result="BackgroundImageFix"/>
<feColorMatrix in="SourceAlpha" type="matrix" values="0 0 0 0 0 0 0 0 0 0 0 0 0 0 0 0 0 0 127 0" result="hardAlpha"/>
<feOffset dy="4"/>
<feGaussianBlur stdDeviation="2"/>
<feComposite in2="hardAlpha" operator="out"/>
<feColorMatrix type="matrix" values="0 0 0 0 0 0 0 0 0 0 0 0 0 0 0 0 0 0 0.25 0"/>
<feBlend mode="normal" in2="BackgroundImageFix" result="effect1_dropShadow_463_12263"/>
<feBlend mode="normal" in="SourceGraphic" in2="effect1_dropShadow_463_12263" result="shape"/>
</filter>
</defs>
</svg>
