<svg width="20" height="20" viewBox="0 0 20 20" fill="none" xmlns="http://www.w3.org/2000/svg">
<g id="icon/check - fill">
<path id="Vector" fill-rule="evenodd" clip-rule="evenodd" d="M9.99996 1.04166C5.05246 1.04166 1.04163 5.0525 1.04163 10C1.04163 14.9475 5.05246 18.9583 9.99996 18.9583C14.9475 18.9583 18.9583 14.9475 18.9583 10C18.9583 5.0525 14.9475 1.04166 9.99996 1.04166ZM6.27496 9.975C6.15648 9.8646 5.99977 9.80449 5.83786 9.80735C5.67594 9.81021 5.52145 9.8758 5.40694 9.99031C5.29243 10.1048 5.22684 10.2593 5.22398 10.4212C5.22112 10.5831 5.28123 10.7399 5.39163 10.8583L7.89163 13.3583C8.00881 13.4754 8.16767 13.5411 8.33329 13.5411C8.49892 13.5411 8.65777 13.4754 8.77496 13.3583L14.6083 7.525C14.7187 7.40652 14.7788 7.24981 14.7759 7.0879C14.7731 6.92598 14.7075 6.77149 14.593 6.65698C14.4785 6.54247 14.324 6.47688 14.1621 6.47402C14.0001 6.47116 13.8434 6.53126 13.725 6.64166L8.33329 12.0333L6.27496 9.975Z" fill="white"/>
</g>
</svg>
