<svg width="20" height="20" viewBox="0 0 20 20" fill="none" xmlns="http://www.w3.org/2000/svg">
<g id="icon/circleCross-fill">
<path id="Vector" fill-rule="evenodd" clip-rule="evenodd" d="M9.99996 1.04167C5.05246 1.04167 1.04163 5.0525 1.04163 10C1.04163 14.9475 5.05246 18.9583 9.99996 18.9583C14.9475 18.9583 18.9583 14.9475 18.9583 10C18.9583 5.0525 14.9475 1.04167 9.99996 1.04167ZM8.08496 7.20083C7.96714 7.08693 7.80929 7.02386 7.64542 7.0252C7.48154 7.02655 7.32475 7.09221 7.20882 7.20803C7.09288 7.32386 7.02708 7.48058 7.02558 7.64446C7.02408 7.80833 7.087 7.96624 7.20079 8.08417L9.11579 10L7.20079 11.915C7.09039 12.0335 7.03029 12.1902 7.03315 12.3521C7.036 12.514 7.1016 12.6685 7.21611 12.783C7.33062 12.8975 7.48511 12.9631 7.64702 12.966C7.80894 12.9688 7.96565 12.9087 8.08413 12.7983L9.99996 10.885L11.915 12.8C12.0334 12.9104 12.1901 12.9705 12.3521 12.9676C12.514 12.9648 12.6685 12.8992 12.783 12.7847C12.8975 12.6702 12.9631 12.5157 12.9659 12.3538C12.9688 12.1919 12.9087 12.0351 12.7983 11.9167L10.8833 10L12.7983 8.085C12.8597 8.02778 12.909 7.95878 12.9431 7.88212C12.9773 7.80545 12.9956 7.72269 12.9971 7.63877C12.9986 7.55485 12.9832 7.47149 12.9517 7.39367C12.9203 7.31585 12.8735 7.24515 12.8142 7.1858C12.7548 7.12645 12.6841 7.07967 12.6063 7.04823C12.5285 7.0168 12.4451 7.00136 12.3612 7.00284C12.2773 7.00432 12.1945 7.02269 12.1178 7.05685C12.0412 7.09101 11.9722 7.14026 11.915 7.20167L9.99996 9.115L8.08496 7.20083Z" fill="white"/>
</g>
</svg>
