<svg width="25" height="24" viewBox="0 0 25 24" fill="none" xmlns="http://www.w3.org/2000/svg">
<g id="icon/QR">
<g id="Vector">
<mask id="path-1-inside-1_858_1777" fill="white">
<path fill-rule="evenodd" clip-rule="evenodd" d="M16.775 2H16.843C17.727 2 18.44 2 19.013 2.055C19.605 2.111 20.121 2.23 20.584 2.514C21.054 2.802 21.448 3.196 21.736 3.666C22.02 4.129 22.139 4.645 22.196 5.236C22.25 5.81 22.25 6.524 22.25 7.407V7.477C22.25 8.057 22.25 8.541 22.213 8.935C22.173 9.347 22.089 9.73 21.873 10.082C21.663 10.426 21.373 10.715 21.029 10.926C20.677 11.142 20.293 11.226 19.882 11.266C19.488 11.303 19.003 11.303 18.422 11.303H17.318C16.482 11.303 15.785 11.303 15.232 11.229C14.648 11.15 14.121 10.978 13.697 10.554C13.273 10.13 13.101 9.604 13.022 9.019C12.948 8.466 12.948 7.769 12.948 6.933V5.827C12.948 5.247 12.948 4.762 12.985 4.368C13.025 3.957 13.109 3.573 13.325 3.222C13.535 2.877 13.825 2.588 14.169 2.377C14.521 2.161 14.904 2.077 15.316 2.037C15.709 2 16.194 2 16.775 2ZM17.599 7.814C17.119 7.814 16.879 7.814 16.71 7.694C16.6509 7.65102 16.599 7.59905 16.556 7.54C16.436 7.37 16.436 7.13 16.436 6.651C16.436 6.172 16.436 5.932 16.556 5.763C16.5989 5.70359 16.6509 5.65129 16.71 5.608C16.88 5.488 17.12 5.488 17.599 5.488C18.078 5.488 18.318 5.488 18.487 5.608C18.547 5.65133 18.5987 5.703 18.642 5.763C18.762 5.932 18.762 6.172 18.762 6.651C18.762 7.13 18.762 7.371 18.642 7.54C18.5987 7.59913 18.5464 7.6511 18.487 7.694C18.318 7.814 18.078 7.814 17.599 7.814ZM10.33 2.377C9.98 2.161 9.596 2.077 9.184 2.037C8.79 2 8.306 2 7.725 2H7.657C6.773 2 6.06 2 5.487 2.055C4.895 2.111 4.379 2.23 3.916 2.514C3.446 2.802 3.052 3.196 2.764 3.666C2.48 4.129 2.361 4.645 2.304 5.236C2.25 5.81 2.25 6.524 2.25 7.407V7.477C2.25 8.057 2.25 8.541 2.287 8.935C2.327 9.347 2.411 9.73 2.627 10.082C2.837 10.426 3.127 10.715 3.472 10.926C3.823 11.142 4.207 11.226 4.618 11.266C5.012 11.303 5.496 11.303 6.078 11.303H7.182C8.018 11.303 8.715 11.303 9.268 11.229C9.852 11.15 10.379 10.978 10.803 10.554C11.227 10.13 11.399 9.604 11.478 9.019C11.552 8.466 11.552 7.769 11.552 6.933V5.827C11.552 5.247 11.552 4.762 11.515 4.368C11.475 3.957 11.391 3.573 11.175 3.222C10.9642 2.87773 10.675 2.58819 10.331 2.377M6.014 7.694C6.183 7.814 6.423 7.814 6.902 7.814C7.381 7.814 7.622 7.814 7.791 7.694C7.85005 7.65102 7.90202 7.59905 7.945 7.54C8.065 7.37 8.065 7.13 8.065 6.651C8.065 6.172 8.065 5.932 7.945 5.763C7.9021 5.70359 7.85013 5.65129 7.791 5.608C7.621 5.488 7.381 5.488 6.902 5.488C6.423 5.488 6.183 5.488 6.014 5.608C5.95451 5.65121 5.90221 5.70351 5.859 5.763C5.739 5.932 5.739 6.172 5.739 6.651C5.739 7.13 5.739 7.371 5.859 7.54C5.90229 7.59913 5.95459 7.6511 6.014 7.694ZM9.268 12.772C9.852 12.851 10.379 13.023 10.803 13.447C11.227 13.871 11.399 14.397 11.478 14.982C11.552 15.535 11.552 16.232 11.552 17.068V18.173C11.552 18.753 11.552 19.238 11.515 19.632C11.475 20.043 11.391 20.427 11.175 20.778C10.965 21.123 10.675 21.412 10.331 21.623C9.979 21.839 9.596 21.923 9.184 21.963C8.79 22 8.306 22 7.725 22H7.657C6.773 22 6.06 22 5.487 21.945C4.895 21.889 4.379 21.77 3.916 21.486C3.44673 21.198 3.05204 20.8033 2.764 20.334C2.48 19.871 2.361 19.355 2.304 18.764C2.25 18.19 2.25 17.477 2.25 16.594V16.524C2.25 15.944 2.25 15.459 2.287 15.066C2.327 14.654 2.411 14.271 2.627 13.919C2.837 13.575 3.127 13.286 3.472 13.075C3.823 12.859 4.207 12.775 4.618 12.735C5.012 12.698 5.496 12.698 6.078 12.698H7.182C8.018 12.698 8.715 12.698 9.268 12.772ZM6.901 18.512C6.421 18.512 6.182 18.512 6.013 18.392C5.95351 18.3488 5.90121 18.2965 5.858 18.237C5.738 18.068 5.738 17.828 5.738 17.349C5.738 16.87 5.738 16.629 5.858 16.46C5.90129 16.4009 5.95359 16.3489 6.013 16.306C6.182 16.186 6.422 16.186 6.901 16.186C7.38 16.186 7.621 16.186 7.79 16.306C7.85 16.3493 7.90133 16.4007 7.944 16.46C8.064 16.63 8.064 16.87 8.064 17.349C8.064 17.828 8.064 18.068 7.944 18.237C7.9011 18.2964 7.84913 18.3487 7.79 18.392C7.62 18.512 7.38 18.512 6.901 18.512Z"/>
</mask>
<path fill-rule="evenodd" clip-rule="evenodd" d="M16.775 2H16.843C17.727 2 18.44 2 19.013 2.055C19.605 2.111 20.121 2.23 20.584 2.514C21.054 2.802 21.448 3.196 21.736 3.666C22.02 4.129 22.139 4.645 22.196 5.236C22.25 5.81 22.25 6.524 22.25 7.407V7.477C22.25 8.057 22.25 8.541 22.213 8.935C22.173 9.347 22.089 9.73 21.873 10.082C21.663 10.426 21.373 10.715 21.029 10.926C20.677 11.142 20.293 11.226 19.882 11.266C19.488 11.303 19.003 11.303 18.422 11.303H17.318C16.482 11.303 15.785 11.303 15.232 11.229C14.648 11.15 14.121 10.978 13.697 10.554C13.273 10.13 13.101 9.604 13.022 9.019C12.948 8.466 12.948 7.769 12.948 6.933V5.827C12.948 5.247 12.948 4.762 12.985 4.368C13.025 3.957 13.109 3.573 13.325 3.222C13.535 2.877 13.825 2.588 14.169 2.377C14.521 2.161 14.904 2.077 15.316 2.037C15.709 2 16.194 2 16.775 2ZM17.599 7.814C17.119 7.814 16.879 7.814 16.71 7.694C16.6509 7.65102 16.599 7.59905 16.556 7.54C16.436 7.37 16.436 7.13 16.436 6.651C16.436 6.172 16.436 5.932 16.556 5.763C16.5989 5.70359 16.6509 5.65129 16.71 5.608C16.88 5.488 17.12 5.488 17.599 5.488C18.078 5.488 18.318 5.488 18.487 5.608C18.547 5.65133 18.5987 5.703 18.642 5.763C18.762 5.932 18.762 6.172 18.762 6.651C18.762 7.13 18.762 7.371 18.642 7.54C18.5987 7.59913 18.5464 7.6511 18.487 7.694C18.318 7.814 18.078 7.814 17.599 7.814ZM10.33 2.377C9.98 2.161 9.596 2.077 9.184 2.037C8.79 2 8.306 2 7.725 2H7.657C6.773 2 6.06 2 5.487 2.055C4.895 2.111 4.379 2.23 3.916 2.514C3.446 2.802 3.052 3.196 2.764 3.666C2.48 4.129 2.361 4.645 2.304 5.236C2.25 5.81 2.25 6.524 2.25 7.407V7.477C2.25 8.057 2.25 8.541 2.287 8.935C2.327 9.347 2.411 9.73 2.627 10.082C2.837 10.426 3.127 10.715 3.472 10.926C3.823 11.142 4.207 11.226 4.618 11.266C5.012 11.303 5.496 11.303 6.078 11.303H7.182C8.018 11.303 8.715 11.303 9.268 11.229C9.852 11.15 10.379 10.978 10.803 10.554C11.227 10.13 11.399 9.604 11.478 9.019C11.552 8.466 11.552 7.769 11.552 6.933V5.827C11.552 5.247 11.552 4.762 11.515 4.368C11.475 3.957 11.391 3.573 11.175 3.222C10.9642 2.87773 10.675 2.58819 10.331 2.377M6.014 7.694C6.183 7.814 6.423 7.814 6.902 7.814C7.381 7.814 7.622 7.814 7.791 7.694C7.85005 7.65102 7.90202 7.59905 7.945 7.54C8.065 7.37 8.065 7.13 8.065 6.651C8.065 6.172 8.065 5.932 7.945 5.763C7.9021 5.70359 7.85013 5.65129 7.791 5.608C7.621 5.488 7.381 5.488 6.902 5.488C6.423 5.488 6.183 5.488 6.014 5.608C5.95451 5.65121 5.90221 5.70351 5.859 5.763C5.739 5.932 5.739 6.172 5.739 6.651C5.739 7.13 5.739 7.371 5.859 7.54C5.90229 7.59913 5.95459 7.6511 6.014 7.694ZM9.268 12.772C9.852 12.851 10.379 13.023 10.803 13.447C11.227 13.871 11.399 14.397 11.478 14.982C11.552 15.535 11.552 16.232 11.552 17.068V18.173C11.552 18.753 11.552 19.238 11.515 19.632C11.475 20.043 11.391 20.427 11.175 20.778C10.965 21.123 10.675 21.412 10.331 21.623C9.979 21.839 9.596 21.923 9.184 21.963C8.79 22 8.306 22 7.725 22H7.657C6.773 22 6.06 22 5.487 21.945C4.895 21.889 4.379 21.77 3.916 21.486C3.44673 21.198 3.05204 20.8033 2.764 20.334C2.48 19.871 2.361 19.355 2.304 18.764C2.25 18.19 2.25 17.477 2.25 16.594V16.524C2.25 15.944 2.25 15.459 2.287 15.066C2.327 14.654 2.411 14.271 2.627 13.919C2.837 13.575 3.127 13.286 3.472 13.075C3.823 12.859 4.207 12.775 4.618 12.735C5.012 12.698 5.496 12.698 6.078 12.698H7.182C8.018 12.698 8.715 12.698 9.268 12.772ZM6.901 18.512C6.421 18.512 6.182 18.512 6.013 18.392C5.95351 18.3488 5.90121 18.2965 5.858 18.237C5.738 18.068 5.738 17.828 5.738 17.349C5.738 16.87 5.738 16.629 5.858 16.46C5.90129 16.4009 5.95359 16.3489 6.013 16.306C6.182 16.186 6.422 16.186 6.901 16.186C7.38 16.186 7.621 16.186 7.79 16.306C7.85 16.3493 7.90133 16.4007 7.944 16.46C8.064 16.63 8.064 16.87 8.064 17.349C8.064 17.828 8.064 18.068 7.944 18.237C7.9011 18.2964 7.84913 18.3487 7.79 18.392C7.62 18.512 7.38 18.512 6.901 18.512Z" fill="#707579"/>
<path d="M19.013 2.055L18.9175 3.05043L18.9188 3.05056L19.013 2.055ZM20.584 2.514L20.0611 3.36642L20.0615 3.36665L20.584 2.514ZM21.736 3.666L20.8833 4.18848L20.8836 4.18886L21.736 3.666ZM22.196 5.236L23.1916 5.14234L23.1914 5.14L22.196 5.236ZM22.213 8.935L23.2083 9.03163L23.2086 9.0285L22.213 8.935ZM21.873 10.082L21.0207 9.55898L21.0195 9.56095L21.873 10.082ZM21.029 10.926L20.5061 10.0736L20.506 10.0737L21.029 10.926ZM19.882 11.266L19.9755 12.2616L19.9789 12.2613L19.882 11.266ZM15.232 11.229L15.0979 12.22L15.0994 12.2202L15.232 11.229ZM13.022 9.019L12.0308 9.15163L12.031 9.15283L13.022 9.019ZM12.985 4.368L11.9897 4.27113L11.9894 4.2745L12.985 4.368ZM13.325 3.222L14.1767 3.7461L14.1792 3.74195L13.325 3.222ZM14.169 2.377L14.6919 3.22942L14.692 3.22932L14.169 2.377ZM15.316 2.037L15.2223 1.0414L15.2194 1.04168L15.316 2.037ZM16.71 7.694L16.1215 8.50255L16.131 8.50936L16.71 7.694ZM16.556 7.54L15.739 8.11668L15.7432 8.12262L15.7475 8.1285L16.556 7.54ZM16.556 5.763L15.7453 5.17752L15.7406 5.18405L16.556 5.763ZM16.71 5.608L16.1333 4.79103L16.1263 4.79601L16.1193 4.80111L16.71 5.608ZM18.487 5.608L19.0725 4.79729L19.066 4.79264L18.487 5.608ZM18.642 5.763L19.4574 5.18403L19.4527 5.17751L18.642 5.763ZM18.642 7.54L19.4489 8.1307L19.4532 8.12486L19.4574 8.11895L18.642 7.54ZM18.487 7.694L19.066 8.50939L19.0725 8.5047L18.487 7.694ZM9.184 2.037L9.28063 1.04167L9.2775 1.04138L9.184 2.037ZM5.487 2.055L5.58117 3.05056L5.58255 3.05043L5.487 2.055ZM3.916 2.514L4.43848 3.36665L4.43886 3.36642L3.916 2.514ZM2.764 3.666L3.61642 4.18886L3.61665 4.18848L2.764 3.666ZM2.304 5.236L1.30862 5.14L1.3084 5.14234L2.304 5.236ZM2.287 8.935L1.29138 9.0285L1.29168 9.03163L2.287 8.935ZM2.627 10.082L3.48053 9.56095L3.47932 9.55898L2.627 10.082ZM3.472 10.926L3.9961 10.0743L3.99375 10.0729L3.472 10.926ZM4.618 11.266L4.52113 12.2613L4.5245 12.2616L4.618 11.266ZM9.268 11.229L9.40063 12.2202L9.40205 12.22L9.268 11.229ZM11.478 9.019L12.469 9.15283L12.4692 9.15163L11.478 9.019ZM11.515 4.368L12.5106 4.2745L12.5103 4.27113L11.515 4.368ZM11.175 3.222L10.3221 3.74416L10.3233 3.7461L11.175 3.222ZM6.014 7.694L5.42852 8.50472L5.43505 8.50936L6.014 7.694ZM7.791 7.694L8.36999 8.50942L8.3795 8.5025L7.791 7.694ZM7.945 7.54L8.7535 8.1285L8.75778 8.12262L8.76197 8.11668L7.945 7.54ZM7.945 5.763L8.76039 5.18403L8.7557 5.17754L7.945 5.763ZM7.791 5.608L8.3817 4.80111L8.37473 4.79601L8.36768 4.79103L7.791 5.608ZM6.014 5.608L5.43501 4.79259L5.42633 4.7989L6.014 5.608ZM5.859 5.763L5.04985 5.17529L5.04364 5.18405L5.859 5.763ZM5.859 7.54L5.04364 8.11895L5.04783 8.12486L5.05211 8.1307L5.859 7.54ZM9.268 12.772L9.40205 11.781L9.40063 11.7808L9.268 12.772ZM11.478 14.982L12.4692 14.8494L12.469 14.8482L11.478 14.982ZM11.515 19.632L12.5103 19.7289L12.5106 19.7255L11.515 19.632ZM11.175 20.778L10.3233 20.2539L10.3208 20.2581L11.175 20.778ZM10.331 21.623L9.80815 20.7706L9.80798 20.7707L10.331 21.623ZM9.184 21.963L9.2775 22.9586L9.28063 22.9583L9.184 21.963ZM5.487 21.945L5.58255 20.9496L5.58117 20.9494L5.487 21.945ZM3.916 21.486L3.39288 22.3383L3.39314 22.3384L3.916 21.486ZM2.764 20.334L1.91158 20.8569L1.91174 20.8571L2.764 20.334ZM2.304 18.764L1.30839 18.8577L1.30862 18.86L2.304 18.764ZM2.287 15.066L1.29168 14.9694L1.2914 14.9723L2.287 15.066ZM2.627 13.919L3.47933 14.442L3.48053 14.44L2.627 13.919ZM3.472 13.075L3.99375 13.9281L3.9961 13.9267L3.472 13.075ZM4.618 12.735L4.5245 11.7394L4.52113 11.7397L4.618 12.735ZM6.013 18.392L5.42529 19.2011L5.43405 19.2074L6.013 18.392ZM5.858 18.237L5.04259 18.816L5.0489 18.8247L5.858 18.237ZM5.858 16.46L5.05111 15.8693L5.04683 15.8751L5.04264 15.881L5.858 16.46ZM6.013 16.306L5.43403 15.4906L5.42754 15.4953L6.013 16.306ZM7.79 16.306L8.37551 15.4953L8.36895 15.4906L7.79 16.306ZM7.944 16.46L8.761 15.8833L8.75588 15.8762L7.944 16.46ZM7.944 18.237L8.75472 18.8225L8.75936 18.816L7.944 18.237ZM7.79 18.392L8.36668 19.209L8.37373 19.204L8.3807 19.1989L7.79 18.392ZM16.775 3H16.843V1H16.775V3ZM16.843 3C17.745 3 18.403 3.00104 18.9175 3.05043L19.1085 1.05958C18.477 0.99896 17.709 1 16.843 1V3ZM18.9188 3.05056C19.4378 3.09965 19.7822 3.19529 20.0611 3.36642L21.1069 1.66158C20.4598 1.26471 19.7722 1.12235 19.1072 1.05944L18.9188 3.05056ZM20.0615 3.36665C20.397 3.57219 20.6778 3.85305 20.8833 4.18848L22.5887 3.14352C22.2182 2.53895 21.711 2.03181 21.1065 1.66135L20.0615 3.36665ZM20.8836 4.18886C21.0549 4.4681 21.1505 4.81282 21.2006 5.332L23.1914 5.14C23.1275 4.47718 22.9851 3.7899 22.5884 3.14314L20.8836 4.18886ZM21.2004 5.32966C21.249 5.84632 21.25 6.50636 21.25 7.407H23.25C23.25 6.54164 23.251 5.77368 23.1916 5.14234L21.2004 5.32966ZM21.25 7.407V7.477H23.25V7.407H21.25ZM21.25 7.477C21.25 8.07382 21.249 8.50454 21.2174 8.8415L23.2086 9.0285C23.251 8.57746 23.25 8.04018 23.25 7.477H21.25ZM21.2177 8.83837C21.1845 9.18007 21.1236 9.39132 21.0207 9.55898L22.7253 10.605C23.0544 10.0687 23.1615 9.51393 23.2083 9.03163L21.2177 8.83837ZM21.0195 9.56095C20.893 9.76814 20.717 9.94424 20.5061 10.0736L21.5519 11.7784C22.029 11.4858 22.433 11.0839 22.7265 10.603L21.0195 9.56095ZM20.506 10.0737C20.3385 10.1765 20.1264 10.2375 19.7851 10.2707L19.9789 12.2613C20.4596 12.2145 21.0155 12.1075 21.552 11.7783L20.506 10.0737ZM19.7885 10.2704C19.4516 10.302 19.0199 10.303 18.422 10.303V12.303C18.9861 12.303 19.5244 12.304 19.9755 12.2616L19.7885 10.2704ZM18.422 10.303H17.318V12.303H18.422V10.303ZM17.318 10.303C16.457 10.303 15.8366 10.301 15.3646 10.2378L15.0994 12.2202C15.7334 12.305 16.507 12.303 17.318 12.303V10.303ZM15.3661 10.238C14.891 10.1738 14.6108 10.0536 14.4041 9.84689L12.9899 11.2611C13.6312 11.9024 14.405 12.1262 15.0979 12.22L15.3661 10.238ZM14.4041 9.84689C14.1973 9.64004 14.0772 9.36063 14.013 8.88517L12.031 9.15283C12.1248 9.84737 12.3487 10.62 12.9899 11.2611L14.4041 9.84689ZM14.0132 8.88637C13.95 8.41436 13.948 7.79397 13.948 6.933H11.948C11.948 7.74403 11.946 8.51764 12.0308 9.15163L14.0132 8.88637ZM13.948 6.933V5.827H11.948V6.933H13.948ZM13.948 5.827C13.948 5.23013 13.949 4.79844 13.9806 4.4615L11.9894 4.2745C11.947 4.72556 11.948 5.26387 11.948 5.827H13.948ZM13.9803 4.46487C14.0135 4.12326 14.0746 3.91191 14.1767 3.7461L12.4733 2.6979C12.1434 3.23409 12.0365 3.79074 11.9897 4.27113L13.9803 4.46487ZM14.1792 3.74195C14.3055 3.53448 14.4811 3.35868 14.6919 3.22942L13.6461 1.52458C13.1689 1.81732 12.7645 2.21952 12.4708 2.70205L14.1792 3.74195ZM14.692 3.22932C14.8597 3.12644 15.0709 3.0655 15.4126 3.03232L15.2194 1.04168C14.7371 1.0885 14.1823 1.19556 13.646 1.52468L14.692 3.22932ZM15.4097 3.0326C15.7455 3.00098 16.177 3 16.775 3V1C16.211 1 15.6725 0.999015 15.2223 1.0414L15.4097 3.0326ZM17.599 6.814C17.476 6.814 17.382 6.81396 17.3016 6.81233C17.221 6.8107 17.173 6.80773 17.1436 6.8046C17.0854 6.79842 17.1761 6.79854 17.289 6.87864L16.131 8.50936C16.4129 8.70946 16.7081 8.76958 16.9322 8.7934C17.1384 8.81532 17.3808 8.814 17.599 8.814V6.814ZM17.2985 6.8855C17.3238 6.90392 17.3461 6.9262 17.3645 6.9515L15.7475 8.1285C15.8519 8.27191 15.9781 8.39811 16.1215 8.5025L17.2985 6.8855ZM17.373 6.96332C17.4515 7.07455 17.4515 7.16355 17.4454 7.10568C17.4423 7.0762 17.4393 7.02829 17.4377 6.94782C17.436 6.86751 17.436 6.77371 17.436 6.651H15.436C15.436 6.86872 15.4347 7.11083 15.4566 7.31707C15.4805 7.54145 15.5405 7.83545 15.739 8.11668L17.373 6.96332ZM17.436 6.651C17.436 6.52829 17.436 6.43449 17.4377 6.3542C17.4393 6.27373 17.4423 6.2259 17.4454 6.19653C17.4516 6.13857 17.4514 6.2292 17.3714 6.34195L15.7406 5.18405C15.5406 5.4658 15.4804 5.76093 15.4566 5.98497C15.4347 6.19114 15.436 6.43333 15.436 6.651H17.436ZM17.3667 6.34846C17.3483 6.37392 17.326 6.39634 17.3007 6.41489L16.1193 4.80111C15.9757 4.90624 15.8495 5.03326 15.7453 5.17754L17.3667 6.34846ZM17.2867 6.42497C17.1755 6.50348 17.0865 6.50355 17.1443 6.4974C17.1738 6.49426 17.2217 6.4913 17.3022 6.48967C17.3825 6.48804 17.4763 6.488 17.599 6.488V4.488C17.3813 4.488 17.1392 4.48668 16.9329 4.5086C16.7085 4.53245 16.4145 4.59252 16.1333 4.79103L17.2867 6.42497ZM17.599 6.488C17.7217 6.488 17.8155 6.48804 17.8958 6.48967C17.9763 6.4913 18.0241 6.49426 18.0535 6.49739C18.1114 6.50356 18.0208 6.50342 17.908 6.42336L19.066 4.79264C18.7842 4.59258 18.4891 4.53244 18.265 4.50861C18.0589 4.48668 17.8167 4.488 17.599 4.488V6.488ZM17.9015 6.41868C17.8749 6.39946 17.8505 6.3751 17.8313 6.34849L19.4527 5.17751C19.3468 5.0309 19.2191 4.9032 19.0725 4.79732L17.9015 6.41868ZM17.8266 6.34195C17.7466 6.2292 17.7464 6.13857 17.7526 6.19653C17.7557 6.2259 17.7587 6.27373 17.7603 6.3542C17.762 6.43449 17.762 6.52829 17.762 6.651H19.762C19.762 6.43333 19.7633 6.19114 19.7414 5.98497C19.7176 5.76093 19.6574 5.4658 19.4574 5.18405L17.8266 6.34195ZM17.762 6.651C17.762 6.7737 17.762 6.86758 17.7603 6.94797C17.7587 7.02855 17.7557 7.07657 17.7526 7.10615C17.7463 7.16498 17.7463 7.07421 17.8266 6.96105L19.4574 8.11895C19.6577 7.83679 19.7177 7.54102 19.7414 7.31735C19.7633 7.11104 19.762 6.86874 19.762 6.651H17.762ZM17.8351 6.9493C17.8537 6.92396 17.8761 6.90169 17.9015 6.8833L19.0725 8.5047C19.2167 8.40051 19.3438 8.2743 19.4489 8.1307L17.8351 6.9493ZM17.908 6.87864C18.0208 6.79858 18.1114 6.79844 18.0535 6.80461C18.0241 6.80774 17.9763 6.8107 17.8958 6.81233C17.8155 6.81396 17.7217 6.814 17.599 6.814V8.814C17.8167 8.814 18.0589 8.81532 18.265 8.79339C18.4891 8.76956 18.7842 8.70942 19.066 8.50936L17.908 6.87864ZM10.8552 1.52601C10.3192 1.19524 9.76167 1.08838 9.28063 1.04168L9.08737 3.03232C9.43033 3.06562 9.64079 3.12676 9.80482 3.22799L10.8552 1.52601ZM9.2775 1.04138C8.82645 0.999023 8.28916 1 7.725 1V3C8.32284 3 8.75355 3.00098 9.0905 3.03262L9.2775 1.04138ZM7.725 1H7.657V3H7.725V1ZM7.657 1C6.79103 1 6.02295 0.99896 5.39145 1.05958L5.58255 3.05043C6.09705 3.00104 6.75497 3 7.657 3V1ZM5.39283 1.05944C4.72778 1.12235 4.04015 1.26471 3.39314 1.66158L4.43886 3.36642C4.71785 3.19529 5.06222 3.09965 5.58117 3.05056L5.39283 1.05944ZM3.39352 1.66135C2.78895 2.03181 2.28181 2.53895 1.91135 3.14352L3.61665 4.18848C3.82219 3.85305 4.10305 3.57219 4.43848 3.36665L3.39352 1.66135ZM1.91158 3.14314C1.51486 3.7899 1.37255 4.47718 1.30862 5.14L3.29938 5.332C3.34945 4.81282 3.44514 4.4681 3.61642 4.18886L1.91158 3.14314ZM1.3084 5.14234C1.249 5.77368 1.25 6.54164 1.25 7.407H3.25C3.25 6.50636 3.251 5.84632 3.2996 5.32966L1.3084 5.14234ZM1.25 7.407V7.477H3.25V7.407H1.25ZM1.25 7.477C1.25 8.04018 1.24902 8.57746 1.29138 9.0285L3.28262 8.8415C3.25098 8.50455 3.25 8.07382 3.25 7.477H1.25ZM1.29168 9.03163C1.3385 9.51393 1.44556 10.0687 1.77468 10.605L3.47932 9.55898C3.37644 9.39132 3.3155 9.18007 3.28232 8.83837L1.29168 9.03163ZM1.77347 10.603C2.06708 11.084 2.4714 11.4862 2.95025 11.7791L3.99375 10.0729C3.7826 9.94377 3.60692 9.768 3.48053 9.56095L1.77347 10.603ZM2.9479 11.7777C3.48409 12.1076 4.04074 12.2145 4.52113 12.2613L4.71487 10.2707C4.37326 10.2375 4.16191 10.1764 3.9961 10.0743L2.9479 11.7777ZM4.5245 12.2616C4.97556 12.304 5.51286 12.303 6.078 12.303V10.303C5.47914 10.303 5.04844 10.302 4.7115 10.2704L4.5245 12.2616ZM6.078 12.303H7.182V10.303H6.078V12.303ZM7.182 12.303C7.99303 12.303 8.76664 12.305 9.40063 12.2202L9.13537 10.2378C8.66335 10.301 8.04297 10.303 7.182 10.303V12.303ZM9.40205 12.22C10.095 12.1262 10.8688 11.9024 11.5101 11.2611L10.0959 9.84689C9.8892 10.0536 9.60896 10.1738 9.13395 10.238L9.40205 12.22ZM11.5101 11.2611C12.1513 10.62 12.3752 9.84737 12.469 9.15283L10.487 8.88517C10.4228 9.36063 10.3027 9.64004 10.0959 9.84689L11.5101 11.2611ZM12.4692 9.15163C12.554 8.51764 12.552 7.74403 12.552 6.933H10.552C10.552 7.79397 10.55 8.41436 10.4868 8.88637L12.4692 9.15163ZM12.552 6.933V5.827H10.552V6.933H12.552ZM12.552 5.827C12.552 5.26387 12.553 4.72556 12.5106 4.2745L10.5194 4.4615C10.551 4.79844 10.552 5.23013 10.552 5.827H12.552ZM12.5103 4.27113C12.4635 3.79074 12.3566 3.23409 12.0267 2.6979L10.3233 3.7461C10.4254 3.91191 10.4865 4.12326 10.5197 4.46487L12.5103 4.27113ZM12.0279 2.69985C11.7347 2.2211 11.3326 1.81845 10.8542 1.52477L9.80784 3.22923C10.0175 3.35792 10.1937 3.53436 10.3221 3.74415L12.0279 2.69985ZM5.43505 8.50936C5.7168 8.70942 6.01193 8.76956 6.23596 8.79339C6.44214 8.81532 6.68433 8.814 6.902 8.814V6.814C6.77929 6.814 6.68549 6.81396 6.6052 6.81233C6.52473 6.8107 6.47691 6.80774 6.44754 6.80461C6.38957 6.79844 6.4802 6.79858 6.59295 6.87864L5.43505 8.50936ZM6.902 8.814C7.11974 8.814 7.36204 8.81532 7.56835 8.79341C7.79202 8.76966 8.0878 8.70971 8.36995 8.50936L7.21205 6.87864C7.3252 6.79829 7.41598 6.79834 7.35715 6.80459C7.32757 6.80773 7.27955 6.8107 7.19897 6.81233C7.11858 6.81396 7.0247 6.814 6.902 6.814V8.814ZM8.3795 8.5025C8.52291 8.39811 8.64911 8.27192 8.7535 8.1285L7.1365 6.9515C7.15493 6.92619 7.1772 6.90392 7.2025 6.8855L8.3795 8.5025ZM8.76197 8.11668C8.96048 7.83545 9.02055 7.54146 9.0444 7.31707C9.06632 7.11083 9.065 6.86872 9.065 6.651H7.065C7.065 6.77371 7.06496 6.86751 7.06333 6.94782C7.0617 7.02829 7.05874 7.07619 7.0556 7.10568C7.04945 7.16354 7.04952 7.07455 7.12803 6.96332L8.76197 8.11668ZM9.065 6.651C9.065 6.43333 9.06632 6.19114 9.04439 5.98496C9.02056 5.76093 8.96042 5.4658 8.76036 5.18405L7.12964 6.34195C7.04958 6.2292 7.04944 6.13857 7.05561 6.19654C7.05874 6.2259 7.0617 6.27373 7.06333 6.3542C7.06496 6.43449 7.065 6.52829 7.065 6.651H9.065ZM8.7557 5.17754C8.6515 5.03326 8.5253 4.90623 8.3817 4.80111L7.2003 6.41489C7.17496 6.39634 7.15269 6.37393 7.1343 6.34846L8.7557 5.17754ZM8.36768 4.79103C8.08645 4.59252 7.79246 4.53245 7.56807 4.5086C7.36183 4.48668 7.11972 4.488 6.902 4.488V6.488C7.02471 6.488 7.11851 6.48804 7.19882 6.48967C7.27929 6.4913 7.32719 6.49426 7.35668 6.4974C7.41454 6.50355 7.32555 6.50348 7.21432 6.42497L8.36768 4.79103ZM6.902 4.488C6.68433 4.488 6.44214 4.48668 6.23596 4.50861C6.01193 4.53244 5.7168 4.59258 5.43505 4.79264L6.59295 6.42336C6.4802 6.50342 6.38957 6.50356 6.44754 6.49739C6.4769 6.49426 6.52473 6.4913 6.6052 6.48967C6.68549 6.48804 6.77929 6.488 6.902 6.488V4.488ZM5.42633 4.7989C5.28186 4.90383 5.15483 5.03087 5.0499 5.17533L6.6681 6.35067C6.64958 6.37616 6.62717 6.39858 6.60167 6.4171L5.42633 4.7989ZM5.04364 5.18405C4.84358 5.4658 4.78344 5.76093 4.75961 5.98496C4.73768 6.19114 4.739 6.43333 4.739 6.651H6.739C6.739 6.52829 6.73904 6.43449 6.74067 6.3542C6.7423 6.27373 6.74526 6.22591 6.74839 6.19654C6.75456 6.13857 6.75442 6.2292 6.67436 6.34195L5.04364 5.18405ZM4.739 6.651C4.739 6.86874 4.73768 7.11104 4.75959 7.31735C4.78334 7.54102 4.84329 7.8368 5.04364 8.11895L6.67436 6.96105C6.75471 7.0742 6.75466 7.16498 6.74841 7.10615C6.74527 7.07657 6.7423 7.02855 6.74067 6.94797C6.73904 6.86758 6.739 6.7737 6.739 6.651H4.739ZM5.05211 8.1307C5.15723 8.2743 5.28426 8.4005 5.42854 8.5047L6.59946 6.8833C6.62493 6.90169 6.64734 6.92396 6.66589 6.9493L5.05211 8.1307ZM9.13395 13.763C9.60896 13.8272 9.8892 13.9474 10.0959 14.1541L11.5101 12.7399C10.8688 12.0986 10.095 11.8748 9.40205 11.781L9.13395 13.763ZM10.0959 14.1541C10.3027 14.361 10.4228 14.6404 10.487 15.1158L12.469 14.8482C12.3752 14.1536 12.1513 13.381 11.5101 12.7399L10.0959 14.1541ZM10.4868 15.1146C10.55 15.5866 10.552 16.207 10.552 17.068H12.552C12.552 16.257 12.554 15.4834 12.4692 14.8494L10.4868 15.1146ZM10.552 17.068V18.173H12.552V17.068H10.552ZM10.552 18.173C10.552 18.7699 10.551 19.2016 10.5194 19.5385L12.5106 19.7255C12.553 19.2744 12.552 18.7361 12.552 18.173H10.552ZM10.5197 19.5351C10.4865 19.8767 10.4254 20.0881 10.3233 20.2539L12.0267 21.3021C12.3566 20.7659 12.4635 20.2093 12.5103 19.7289L10.5197 19.5351ZM10.3208 20.2581C10.1945 20.4655 10.0189 20.6413 9.80815 20.7706L10.8539 22.4754C11.3311 22.1827 11.7355 21.7805 12.0292 21.2979L10.3208 20.2581ZM9.80798 20.7707C9.64032 20.8736 9.42907 20.9345 9.08737 20.9677L9.28063 22.9583C9.76293 22.9115 10.3177 22.8044 10.854 22.4753L9.80798 20.7707ZM9.0905 20.9674C8.75355 20.999 8.32284 21 7.725 21V23C8.28916 23 8.82645 23.001 9.2775 22.9586L9.0905 20.9674ZM7.725 21H7.657V23H7.725V21ZM7.657 21C6.75497 21 6.09705 20.999 5.58255 20.9496L5.39145 22.9404C6.02295 23.001 6.79103 23 7.657 23V21ZM5.58117 20.9494C5.06222 20.9004 4.71785 20.8047 4.43886 20.6336L3.39314 22.3384C4.04015 22.7353 4.72778 22.8776 5.39283 22.9406L5.58117 20.9494ZM4.43912 20.6337C4.10392 20.428 3.822 20.1461 3.61626 19.8109L1.91174 20.8571C2.28207 21.4605 2.78953 21.9679 3.39288 22.3383L4.43912 20.6337ZM3.61642 19.8111C3.44514 19.5319 3.34945 19.1872 3.29938 18.668L1.30862 18.86C1.37255 19.5228 1.51486 20.2101 1.91158 20.8569L3.61642 19.8111ZM3.2996 18.6703C3.251 18.1537 3.25 17.4946 3.25 16.594H1.25C1.25 17.4594 1.249 18.2263 1.3084 18.8577L3.2996 18.6703ZM3.25 16.594V16.524H1.25V16.594H3.25ZM3.25 16.524C3.25 15.927 3.25098 15.4955 3.2826 15.1597L1.2914 14.9723C1.24902 15.4225 1.25 15.961 1.25 16.524H3.25ZM3.28232 15.1626C3.3155 14.8209 3.37644 14.6097 3.47932 14.442L1.77468 13.396C1.44556 13.9323 1.3385 14.4871 1.29168 14.9694L3.28232 15.1626ZM3.48053 14.44C3.60692 14.233 3.7826 14.0572 3.99375 13.9281L2.95025 12.2219C2.4714 12.5148 2.06708 12.917 1.77347 13.398L3.48053 14.44ZM3.9961 13.9267C4.16191 13.8246 4.37326 13.7635 4.71487 13.7303L4.52113 11.7397C4.04074 11.7865 3.48409 11.8934 2.9479 12.2233L3.9961 13.9267ZM4.7115 13.7306C5.04844 13.699 5.47913 13.698 6.078 13.698V11.698C5.51287 11.698 4.97556 11.697 4.5245 11.7394L4.7115 13.7306ZM6.078 13.698H7.182V11.698H6.078V13.698ZM7.182 13.698C8.04297 13.698 8.66335 13.7 9.13537 13.7632L9.40063 11.7808C8.76664 11.696 7.99303 11.698 7.182 11.698V13.698ZM6.901 17.512C6.77803 17.512 6.68411 17.512 6.60377 17.5103C6.52324 17.5087 6.47549 17.5057 6.44625 17.5026C6.38899 17.4965 6.47955 17.4968 6.59195 17.5766L5.43405 19.2074C5.71545 19.4072 6.01001 19.4675 6.2345 19.4914C6.44062 19.5133 6.68291 19.512 6.901 19.512V17.512ZM6.60067 17.5829C6.62617 17.6014 6.64858 17.6238 6.6671 17.6493L5.0489 18.8247C5.15383 18.9691 5.28086 19.0962 5.42533 19.2011L6.60067 17.5829ZM6.67336 17.658C6.75342 17.7708 6.75356 17.8614 6.74739 17.8035C6.74426 17.7741 6.7413 17.7263 6.73967 17.6458C6.73804 17.5655 6.738 17.4717 6.738 17.349H4.738C4.738 17.5667 4.73668 17.8089 4.75861 18.015C4.78244 18.2391 4.84258 18.5342 5.04264 18.816L6.67336 17.658ZM6.738 17.349C6.738 17.2263 6.73804 17.1324 6.73967 17.052C6.7413 16.9715 6.74427 16.9234 6.74741 16.8939C6.75366 16.835 6.75371 16.9258 6.67336 17.039L5.04264 15.881C4.84229 16.1632 4.78234 16.459 4.75859 16.6826C4.73668 16.889 4.738 17.1313 4.738 17.349H6.738ZM6.66489 17.0507C6.64634 17.076 6.62392 17.0983 6.59846 17.1167L5.42754 15.4953C5.28326 15.5995 5.15624 15.7257 5.05111 15.8693L6.66489 17.0507ZM6.59195 17.1214C6.4792 17.2014 6.38857 17.2016 6.44653 17.1954C6.4759 17.1923 6.52373 17.1893 6.6042 17.1877C6.68449 17.186 6.77829 17.186 6.901 17.186V15.186C6.68333 15.186 6.44114 15.1847 6.23497 15.2066C6.01093 15.2304 5.7158 15.2906 5.43405 15.4906L6.59195 17.1214ZM6.901 17.186C7.0237 17.186 7.11758 17.186 7.19797 17.1877C7.27855 17.1893 7.32657 17.1923 7.35615 17.1954C7.41498 17.2017 7.32421 17.2017 7.21105 17.1214L8.36895 15.4906C8.08679 15.2903 7.79102 15.2303 7.56735 15.2066C7.36104 15.1847 7.11874 15.186 6.901 15.186V17.186ZM7.20451 17.1167C7.17847 17.0979 7.15304 17.0729 7.13212 17.0438L8.75588 15.8762C8.64963 15.7284 8.52153 15.6008 8.37549 15.4953L7.20451 17.1167ZM7.12703 17.0367C7.04852 16.9255 7.04845 16.8365 7.0546 16.8943C7.05774 16.9238 7.0607 16.9717 7.06233 17.0522C7.06396 17.1325 7.064 17.2263 7.064 17.349H9.064C9.064 17.1313 9.06532 16.8892 9.0434 16.6829C9.01955 16.4585 8.95948 16.1645 8.76097 15.8833L7.12703 17.0367ZM7.064 17.349C7.064 17.4717 7.06396 17.5655 7.06233 17.6458C7.0607 17.7263 7.05774 17.7741 7.05461 17.8035C7.04844 17.8614 7.04858 17.7708 7.12864 17.658L8.75936 18.816C8.95942 18.5342 9.01956 18.2391 9.04339 18.015C9.06532 17.8089 9.064 17.5667 9.064 17.349H7.064ZM7.1333 17.6515C7.15169 17.6261 7.17396 17.6037 7.1993 17.5851L8.3807 19.1989C8.5243 19.0938 8.65051 18.9667 8.7547 18.8225L7.1333 17.6515ZM7.21332 17.575C7.32455 17.4965 7.41355 17.4965 7.35568 17.5026C7.3262 17.5057 7.27829 17.5087 7.19782 17.5103C7.11751 17.512 7.02371 17.512 6.901 17.512V19.512C7.11872 19.512 7.36083 19.5133 7.56707 19.4914C7.79145 19.4675 8.08545 19.4075 8.36668 19.209L7.21332 17.575Z" fill="#707579" mask="url(#path-1-inside-1_858_1777)"/>
</g>
<path id="Vector_2" d="M12.948 16.616V16.651H14.343C14.343 15.983 14.343 15.535 14.379 15.193C14.412 14.863 14.472 14.711 14.539 14.61C14.6243 14.4836 14.7329 14.3747 14.859 14.289C14.961 14.222 15.113 14.162 15.443 14.129C15.785 14.094 16.233 14.093 16.901 14.093H18.761V12.698H16.866C16.243 12.698 15.723 12.698 15.302 12.74C14.862 12.785 14.453 12.883 14.085 13.129C13.805 13.315 13.565 13.555 13.379 13.835C13.133 14.203 13.035 14.612 12.99 15.052C12.948 15.472 12.948 15.992 12.948 16.616ZM22.25 18.535V18.512H20.855C20.855 18.955 20.855 19.252 20.839 19.482C20.823 19.706 20.796 19.815 20.766 19.887C20.7077 20.0283 20.622 20.1568 20.5139 20.2649C20.4058 20.373 20.2774 20.4587 20.136 20.517C20.066 20.546 19.956 20.573 19.732 20.589C19.502 20.604 19.205 20.605 18.762 20.605H16.902V22H18.785C19.199 22 19.544 22 19.827 21.98C20.1161 21.969 20.4014 21.9099 20.671 21.805C21.2975 21.5452 21.7952 21.0474 22.055 20.421C22.167 20.151 22.211 19.872 22.231 19.577C22.25 19.294 22.25 18.949 22.25 18.535ZM14.343 21.302C14.3466 21.3958 14.3312 21.4894 14.2977 21.5771C14.2642 21.6648 14.2134 21.7449 14.1483 21.8125C14.0832 21.8802 14.0051 21.934 13.9187 21.9707C13.8323 22.0075 13.7394 22.0264 13.6455 22.0264C13.5516 22.0264 13.4587 22.0075 13.3723 21.9707C13.2859 21.934 13.2078 21.8802 13.1427 21.8125C13.0776 21.7449 13.0268 21.6648 12.9933 21.5771C12.9599 21.4894 12.9445 21.3958 12.948 21.302V18.512H14.343V21.302ZM21.552 12.698C21.3674 12.6988 21.1906 12.7725 21.06 12.903C20.9295 13.0336 20.8558 13.2104 20.855 13.395V16.651H22.25V13.395C22.2492 13.2102 22.1754 13.0332 22.0446 12.9027C21.9139 12.7721 21.7368 12.6985 21.552 12.698ZM16.326 16.617C16.25 16.801 16.25 17.034 16.25 17.5C16.25 17.966 16.25 18.199 16.326 18.383C16.4277 18.6275 16.6223 18.8217 16.867 18.923C17.051 19 17.284 19 17.75 19C18.216 19 18.449 19 18.633 18.924C18.8775 18.8223 19.0718 18.6277 19.173 18.383C19.25 18.199 19.25 17.966 19.25 17.5C19.25 17.034 19.25 16.801 19.174 16.617C19.0723 16.3725 18.8777 16.1783 18.633 16.077C18.449 16 18.216 16 17.75 16C17.284 16 17.051 16 16.867 16.076C16.6225 16.1777 16.4273 16.3723 16.326 16.617Z" fill="#707579"/>
</g>
</svg>
