<svg width="24" height="24" viewBox="0 0 24 24" fill="none" xmlns="http://www.w3.org/2000/svg">
<path fill-rule="evenodd" clip-rule="evenodd" d="M19.4554 4.14309C19.6769 4.0098 19.9415 3.96753 20.1936 4.02514C20.4457 4.08275 20.6657 4.23578 20.8074 4.45209L21.7974 5.96209C21.9264 6.15935 21.9816 6.39586 21.9533 6.62988C21.9249 6.86389 21.8148 7.08037 21.6424 7.24109L21.6394 7.24509L21.6254 7.25809L21.5684 7.31109L21.3434 7.52609C20.0984 8.73375 18.8912 9.97968 17.7234 11.2621C15.5264 13.6781 12.9174 16.8401 11.1614 19.9081C10.6714 20.7641 9.47436 20.9481 8.76436 20.2091L2.27936 13.4711C2.18643 13.3745 2.11386 13.2602 2.06598 13.135C2.0181 13.0098 1.99587 12.8762 2.00063 12.7423C2.00539 12.6083 2.03703 12.4767 2.09367 12.3552C2.15032 12.2337 2.23081 12.1249 2.33036 12.0351L4.29036 10.2671C4.4626 10.1118 4.68346 10.0212 4.91514 10.0108C5.14682 10.0004 5.3749 10.0709 5.56036 10.2101L8.86936 12.6911C14.0384 7.59409 16.9694 5.63809 19.4554 4.14309Z" fill="#007AFF"/>
</svg>
