<svg width="41" height="40" viewBox="0 0 41 40" fill="none" xmlns="http://www.w3.org/2000/svg">
<path fill-rule="evenodd" clip-rule="evenodd" d="M23.3467 9.22337C22.6484 8.55314 21.7179 8.17889 20.75 8.17889C19.7821 8.17889 18.8517 8.55314 18.1534 9.22337L10.4434 16.6234C10.2545 16.8048 10.1275 17.0409 10.08 17.2984C9.15526 22.3342 9.08708 27.4899 9.87836 32.5484L10.065 33.75H15.0267V23.3984C15.0267 23.0669 15.1584 22.7489 15.3928 22.5145C15.6272 22.2801 15.9452 22.1484 16.2767 22.1484H25.2234C25.5549 22.1484 25.8728 22.2801 26.1072 22.5145C26.3417 22.7489 26.4734 23.0669 26.4734 23.3984V33.75H31.435L31.6217 32.55C32.4137 27.4911 32.3461 22.3348 31.4217 17.2984C31.3738 17.0407 31.2461 16.8045 31.0567 16.6234L23.3467 9.22337ZM16.4234 7.42004C17.5871 6.30365 19.1374 5.6803 20.75 5.6803C22.3627 5.6803 23.9129 6.30365 25.0767 7.42004L32.7884 14.82C33.355 15.3634 33.7384 16.0734 33.88 16.8467C34.8521 22.1597 34.9237 27.5983 34.0917 32.935L33.7917 34.8634C33.7326 35.2503 33.5365 35.6031 33.2392 35.8576C32.9419 36.1121 32.5631 36.2513 32.1717 36.25H25.2234C24.8918 36.25 24.5739 36.1183 24.3395 35.8839C24.1051 35.6495 23.9734 35.3316 23.9734 35V24.6484H17.5267V35C17.5267 35.3316 17.395 35.6495 17.1606 35.8839C16.9262 36.1183 16.6082 36.25 16.2767 36.25H9.32836C8.93699 36.2513 8.55816 36.1121 8.26084 35.8576C7.96352 35.6031 7.76746 35.2503 7.70836 34.8634L7.40836 32.935C6.57638 27.5983 6.64793 22.1597 7.62002 16.8467C7.76169 16.0734 8.14502 15.3634 8.71169 14.8184L16.4234 7.42004Z" fill="#707579"/>
</svg>
