<svg width="20" height="20" viewBox="0 0 20 20" fill="none" xmlns="http://www.w3.org/2000/svg">
<g id="icon/warning-fill">
<path id="Vector" fill-rule="evenodd" clip-rule="evenodd" d="M8.01332 3.035C8.89499 1.5025 11.105 1.5025 11.9867 3.035L18.6892 14.6917C19.5675 16.2192 18.4642 18.125 16.7025 18.125H3.29749C1.53499 18.125 0.432485 16.2192 1.31082 14.6917L8.01332 3.035ZM9.99999 6.875C10.1657 6.875 10.3247 6.94085 10.4419 7.05806C10.5591 7.17527 10.625 7.33424 10.625 7.5V10.8333C10.625 10.9991 10.5591 11.1581 10.4419 11.2753C10.3247 11.3925 10.1657 11.4583 9.99999 11.4583C9.83422 11.4583 9.67525 11.3925 9.55804 11.2753C9.44083 11.1581 9.37499 10.9991 9.37499 10.8333V7.5C9.37499 7.33424 9.44083 7.17527 9.55804 7.05806C9.67525 6.94085 9.83422 6.875 9.99999 6.875ZM10.4733 14.5833C10.5806 14.4596 10.635 14.2987 10.6248 14.1352C10.6147 13.9718 10.5408 13.8189 10.419 13.7093C10.2973 13.5998 10.1374 13.5424 9.97378 13.5496C9.81017 13.5567 9.6559 13.6278 9.54415 13.7475L9.53582 13.7567C9.42893 13.8804 9.37478 14.0411 9.38497 14.2042C9.39516 14.3674 9.46888 14.5201 9.59033 14.6295C9.71177 14.739 9.87128 14.7965 10.0346 14.7897C10.198 14.783 10.3522 14.7125 10.4642 14.5933L10.4733 14.5833Z" fill="black"/>
</g>
</svg>
