<svg width="22" height="25" viewBox="0 0 22 25" fill="none" xmlns="http://www.w3.org/2000/svg">
<g id="Group">
<path id="Vector" fill-rule="evenodd" clip-rule="evenodd" d="M18 1.66667C18 1.35725 17.8771 1.0605 17.6583 0.841709C17.4395 0.622916 17.1428 0.5 16.8333 0.5C16.5239 0.5 16.2272 0.622916 16.0084 0.841709C15.7896 1.0605 15.6667 1.35725 15.6667 1.66667V2.83333H1.66667C1.35725 2.83333 1.0605 2.95625 0.841709 3.17504C0.622916 3.39383 0.5 3.69058 0.5 4C0.5 4.30942 0.622916 4.60616 0.841709 4.82496C1.0605 5.04375 1.35725 5.16667 1.66667 5.16667H15.6667V6.33333C15.6667 6.64275 15.7896 6.9395 16.0084 7.15829C16.2272 7.37708 16.5239 7.5 16.8333 7.5C17.1428 7.5 17.4395 7.37708 17.6583 7.15829C17.8771 6.9395 18 6.64275 18 6.33333V5.16667H20.3333C20.6428 5.16667 20.9395 5.04375 21.1583 4.82496C21.3771 4.60616 21.5 4.30942 21.5 4C21.5 3.69058 21.3771 3.39383 21.1583 3.17504C20.9395 2.95625 20.6428 2.83333 20.3333 2.83333H18V1.66667ZM1.66667 9.83333C1.35725 9.83333 1.0605 9.95625 0.841709 10.175C0.622916 10.3938 0.5 10.6906 0.5 11C0.5 11.3094 0.622916 11.6062 0.841709 11.825C1.0605 12.0437 1.35725 12.1667 1.66667 12.1667H4V13.3333C4 13.6428 4.12292 13.9395 4.34171 14.1583C4.5605 14.3771 4.85725 14.5 5.16667 14.5C5.47609 14.5 5.77283 14.3771 5.99162 14.1583C6.21042 13.9395 6.33333 13.6428 6.33333 13.3333V12.1667H20.3333C20.6428 12.1667 20.9395 12.0437 21.1583 11.825C21.3771 11.6062 21.5 11.3094 21.5 11C21.5 10.6906 21.3771 10.3938 21.1583 10.175C20.9395 9.95625 20.6428 9.83333 20.3333 9.83333H6.33333V8.66667C6.33333 8.35725 6.21042 8.0605 5.99162 7.84171C5.77283 7.62292 5.47609 7.5 5.16667 7.5C4.85725 7.5 4.5605 7.62292 4.34171 7.84171C4.12292 8.0605 4 8.35725 4 8.66667V9.83333H1.66667ZM0.5 18C0.5 17.6906 0.622916 17.3938 0.841709 17.175C1.0605 16.9562 1.35725 16.8333 1.66667 16.8333H15.6667V15.6667C15.6667 15.3572 15.7896 15.0605 16.0084 14.8417C16.2272 14.6229 16.5239 14.5 16.8333 14.5C17.1428 14.5 17.4395 14.6229 17.6583 14.8417C17.8771 15.0605 18 15.3572 18 15.6667V16.8333H20.3333C20.6428 16.8333 20.9395 16.9562 21.1583 17.175C21.3771 17.3938 21.5 17.6906 21.5 18C21.5 18.3094 21.3771 18.6062 21.1583 18.825C20.9395 19.0438 20.6428 19.1667 20.3333 19.1667H18V20.3333C18 20.6428 17.8771 20.9395 17.6583 21.1583C17.4395 21.3771 17.1428 21.5 16.8333 21.5C16.5239 21.5 16.2272 21.3771 16.0084 21.1583C15.7896 20.9395 15.6667 20.6428 15.6667 20.3333V19.1667H1.66667C1.35725 19.1667 1.0605 19.0438 0.841709 18.825C0.622916 18.6062 0.5 18.3094 0.5 18Z" fill="black"/>
</g>
</svg>
