<svg width="22" height="26" viewBox="0 0 22 26" fill="none" xmlns="http://www.w3.org/2000/svg">
<g id="Group">
<path id="Vector" fill-rule="evenodd" clip-rule="evenodd" d="M10.181 0.561055C10.7091 0.363112 11.2909 0.363112 11.819 0.561055L19.9857 3.62355C20.4305 3.79031 20.8139 4.08889 21.0845 4.47937C21.3551 4.86985 21.5001 5.33364 21.5 5.80872V12.0656C21.5 14.0156 20.9571 15.927 19.9319 17.5858C18.9068 19.2446 17.44 20.5851 15.6958 21.4572L11.7828 23.4137C11.5398 23.5353 11.2718 23.5986 11 23.5986C10.7282 23.5986 10.4602 23.5353 10.2172 23.4137L6.30417 21.4572C4.56004 20.5851 3.09323 19.2446 2.06808 17.5858C1.04293 15.927 0.499958 14.0156 0.5 12.0656V5.80872C0.499941 5.33364 0.644904 4.86985 0.915512 4.47937C1.18612 4.08889 1.56948 3.79031 2.01433 3.62355L10.181 0.561055ZM11 2.74622L2.83333 5.80872V12.0656C2.8336 13.5821 3.25612 15.0685 4.05357 16.3585C4.85101 17.6484 5.99187 18.6908 7.34833 19.3689L11 21.1971V2.74622Z" fill="black"/>
</g>
</svg>
