<svg width="32" height="32" viewBox="0 0 32 32" fill="none" xmlns="http://www.w3.org/2000/svg">
<path fill-rule="evenodd" clip-rule="evenodd" d="M13.2971 0.687536C14.9824 -0.229179 17.0175 -0.229179 18.7028 0.687536L28.473 6.00205C30.2935 6.99226 31.4267 8.89867 31.4267 10.971V21.029C31.4267 23.1013 30.2935 25.0077 28.473 25.998L18.7028 31.3125C17.0175 32.2292 14.9824 32.2292 13.2971 31.3125L3.52687 25.998C1.70645 25.0077 0.573242 23.1013 0.573242 21.029L0.573242 10.971C0.573242 8.89867 1.70645 6.99226 3.52686 6.00205L13.2971 0.687536Z" fill="#292929"/>
<g clip-path="url(#clip0_3612_45598)">
<path d="M9.92375 20.7382C10.0324 20.5996 10.1817 20.5188 10.3401 20.5188H24.7057C24.9683 20.5188 25.0995 20.923 24.9139 21.1598L22.0761 24.7806C21.9675 24.9192 21.8181 25 21.6597 25H7.29413C7.03162 25 6.90036 24.5958 7.08593 24.359L9.92375 20.7382Z" fill="url(#paint0_linear_3612_45598)"/>
<path d="M9.92375 7.21944C10.0369 7.08085 10.1863 7 10.3401 7H24.7057C24.9683 7 25.0995 7.40423 24.9139 7.641L22.0761 11.2618C21.9675 11.4004 21.8181 11.4812 21.6597 11.4812H7.29413C7.03162 11.4812 6.90036 11.077 7.08593 10.8402L9.92375 7.21944Z" fill="url(#paint1_linear_3612_45598)"/>
<path d="M22.0761 13.9355C21.9675 13.7969 21.8181 13.7161 21.6597 13.7161H7.29413C7.03162 13.7161 6.90036 14.1203 7.08593 14.3571L9.92375 17.9779C10.0324 18.1164 10.1817 18.1973 10.3401 18.1973H24.7057C24.9683 18.1973 25.0995 17.7931 24.9139 17.5563L22.0761 13.9355Z" fill="url(#paint2_linear_3612_45598)"/>
</g>
<defs>
<linearGradient id="paint0_linear_3612_45598" x1="23.3334" y1="4.83707" x2="9.06702" y2="26.2539" gradientUnits="userSpaceOnUse">
<stop stop-color="#00FFA3"/>
<stop offset="1" stop-color="#DC1FFF"/>
</linearGradient>
<linearGradient id="paint1_linear_3612_45598" x1="18.9862" y1="1.94121" x2="4.71978" y2="23.358" gradientUnits="userSpaceOnUse">
<stop stop-color="#00FFA3"/>
<stop offset="1" stop-color="#DC1FFF"/>
</linearGradient>
<linearGradient id="paint2_linear_3612_45598" x1="21.146" y1="3.3799" x2="6.87956" y2="24.7967" gradientUnits="userSpaceOnUse">
<stop stop-color="#00FFA3"/>
<stop offset="1" stop-color="#DC1FFF"/>
</linearGradient>
<clipPath id="clip0_3612_45598">
<rect width="18" height="18" fill="white" transform="translate(7 7)"/>
</clipPath>
</defs>
</svg>
