<svg width="24" height="24" viewBox="0 0 24 24" fill="none" xmlns="http://www.w3.org/2000/svg">
<g id="icon/sort">
<path id="Vector" d="M16.0953 20.685C16.5303 21.105 17.2203 21.105 17.6553 20.685L21.7803 16.71C21.8918 16.6088 21.9819 16.4863 22.0452 16.3497C22.1085 16.2131 22.1437 16.0652 22.1488 15.9147C22.1539 15.7643 22.1287 15.6143 22.0748 15.4737C22.0208 15.3332 21.9392 15.2048 21.8348 15.0964C21.7303 14.9879 21.6052 14.9016 21.4668 14.8424C21.3283 14.7831 21.1794 14.7523 21.0289 14.7517C20.8783 14.7511 20.7292 14.7808 20.5903 14.8389C20.4514 14.897 20.3255 14.9824 20.2203 15.09L18.0003 17.229V4.125C18.0003 3.82663 17.8817 3.54048 17.6708 3.3295C17.4598 3.11853 17.1736 3 16.8753 3C16.5769 3 16.2907 3.11853 16.0798 3.3295C15.8688 3.54048 15.7503 3.82663 15.7503 4.125V17.229L13.5303 15.09C13.425 14.9824 13.2991 14.897 13.1602 14.8389C13.0214 14.7808 12.8722 14.7511 12.7216 14.7517C12.5711 14.7523 12.4222 14.7831 12.2837 14.8424C12.1453 14.9016 12.0202 14.9879 11.9157 15.0964C11.8113 15.2048 11.7297 15.3332 11.6758 15.4737C11.6218 15.6143 11.5967 15.7643 11.6017 15.9147C11.6068 16.0652 11.6421 16.2131 11.7054 16.3497C11.7687 16.4863 11.8587 16.6088 11.9703 16.71L16.0953 20.685ZM7.92026 3.33C7.70932 3.11932 7.42338 3.00099 7.12526 3.00099C6.82713 3.00099 6.5412 3.11932 6.33026 3.33L2.20526 7.455C2.00654 7.66826 1.89835 7.95033 1.9035 8.24178C1.90864 8.53324 2.02671 8.81131 2.23283 9.01743C2.43894 9.22355 2.71702 9.34162 3.00847 9.34676C3.29993 9.3519 3.582 9.24372 3.79526 9.045L6.00026 6.84V19.875C6.00026 20.1734 6.11878 20.4595 6.32976 20.6705C6.54074 20.8815 6.82689 21 7.12526 21C7.42363 21 7.70977 20.8815 7.92075 20.6705C8.13173 20.4595 8.25026 20.1734 8.25026 19.875V6.84L10.4553 9.045C10.6685 9.24372 10.9506 9.3519 11.242 9.34676C11.5335 9.34162 11.8116 9.22355 12.0177 9.01743C12.2238 8.81131 12.3419 8.53324 12.347 8.24178C12.3522 7.95033 12.244 7.66826 12.0453 7.455L7.92026 3.33Z" fill="#707579"/>
</g>
</svg>
