<svg width="251" height="221" viewBox="0 0 251 221" fill="none" xmlns="http://www.w3.org/2000/svg">
<g id="Group">
<g id="Group_2">
<g id="Group_3">
<g id="Group_4">
<path id="Vector" d="M162.691 134.292V128.433C175.398 128.433 184.798 124.836 190.629 117.739C199.681 106.723 198.074 89.9805 197.118 83.9323H176.802V78.0737H202.039L202.575 80.3493C202.816 81.3713 208.324 105.563 195.36 121.371C188.328 129.945 177.337 134.292 162.691 134.292Z" fill="#FFC34A"/>
<path id="Vector_2" d="M162.691 134.293H162.69V128.433H162.691C175.398 128.433 184.797 124.835 190.628 117.739C191.221 117.017 191.779 116.259 192.3 115.465C192.268 115.514 192.236 115.562 192.204 115.611C191.712 116.349 191.182 117.065 190.629 117.739C184.798 124.835 175.397 128.433 162.691 128.434V134.292C177.336 134.292 188.327 129.944 195.359 121.37C198.322 117.758 200.553 113.406 201.989 108.436C203.146 104.435 203.795 100.02 203.918 95.3155C203.967 93.4491 203.933 91.5295 203.815 89.6099C203.72 88.0552 203.571 86.4932 203.371 84.9672C203.225 83.8468 203.054 82.7667 202.865 81.7572C202.716 80.9644 202.604 80.4793 202.574 80.3495L202.038 78.0741H176.802V83.932H197.117L197.117 83.9323C197.257 84.816 197.38 85.7369 197.484 86.6697C197.615 87.8434 197.714 89.037 197.78 90.2172C197.947 93.2371 197.896 96.1829 197.626 98.9729C197.56 99.6544 197.482 100.327 197.39 100.989C197.481 100.328 197.559 99.6559 197.625 98.9729C198.242 92.586 197.571 86.8085 197.117 83.9328H176.801V78.0734H202.038L202.038 78.0737L202.575 80.3493C202.605 80.4791 202.717 80.9642 202.865 81.7571C203.055 82.7667 203.225 83.8467 203.372 84.9672C203.571 86.4931 203.721 88.0551 203.816 89.6099C203.933 91.5294 203.968 93.449 203.919 95.3155C203.796 100.02 203.147 104.435 201.99 108.436C201.657 109.588 201.277 110.721 200.86 111.803C200.422 112.94 199.931 114.054 199.402 115.112C198.847 116.22 198.234 117.298 197.58 118.316C196.896 119.38 196.15 120.408 195.36 121.371C188.328 129.945 177.337 134.293 162.691 134.293Z" fill="#FFC34A"/>
</g>
<g id="Group_5">
<path id="Vector_3" d="M175.454 97.2389C172.655 97.2389 170.387 95.0345 170.387 92.3152V78.0737H180.521V92.3152C180.521 95.0345 178.252 97.2389 175.454 97.2389Z" fill="#F2A23A"/>
<path id="Vector_4" d="M175.453 97.2392C174.769 97.2392 174.105 97.109 173.481 96.8523C173.18 96.7289 172.891 96.5761 172.62 96.3982C172.352 96.2221 172.099 96.0198 171.87 95.7969C171.641 95.5741 171.432 95.3289 171.251 95.0682C171.068 94.805 170.911 94.5235 170.784 94.2318C170.52 93.6247 170.386 92.9799 170.386 92.3151V78.0732H180.521V92.3151C180.521 92.9799 180.387 93.6247 180.122 94.2318C179.995 94.5235 179.838 94.805 179.655 95.0682C179.474 95.3289 179.266 95.5741 179.036 95.7969C178.807 96.0198 178.555 96.2221 178.286 96.3982C178.016 96.5761 177.726 96.7288 177.426 96.8523C176.801 97.109 176.137 97.2392 175.453 97.2392ZM170.387 78.0736V92.3151C170.387 95.0299 172.659 97.2384 175.453 97.2384C178.247 97.2384 180.52 95.0298 180.52 92.3151V78.074H170.387V78.0736Z" fill="#F2A23A"/>
</g>
</g>
<g id="Group_6">
<path id="Vector_5" d="M133.682 155.607H112.933V190.759H133.682V155.607Z" fill="#FFC34A"/>
<path id="Vector_6" d="M133.682 190.759H112.932V155.607H133.682V190.759ZM112.932 190.759H133.681V155.607H112.932V190.759H112.932Z" fill="#FFC34A"/>
</g>
<g id="Group_7">
<g id="Group_8">
<path id="Vector_7" d="M83.7719 134.292V128.433C71.0651 128.433 61.6654 124.836 55.8342 117.739C46.7823 106.723 48.389 89.9805 49.3457 83.9323H69.6608V78.0737H44.4246L43.8885 80.3493C43.6474 81.3713 38.1393 105.563 51.1034 121.371C58.135 129.945 69.1262 134.292 83.7719 134.292Z" fill="#FFC34A"/>
<path id="Vector_8" d="M83.7725 134.292H83.7721C69.1264 134.292 58.135 129.945 51.1033 121.371C50.3132 120.407 49.5663 119.38 48.8832 118.316C48.2291 117.298 47.6161 116.22 47.0613 115.112C46.5316 114.054 46.0409 112.94 45.6027 111.803C45.186 110.721 44.8058 109.588 44.4728 108.436C43.3161 104.435 42.667 100.02 42.5439 95.3154C42.4951 93.449 42.5298 91.5293 42.647 89.6098C42.742 88.055 42.8914 86.493 43.0909 84.9671C43.2375 83.8465 43.4079 82.7665 43.5975 81.757C43.7463 80.9641 43.8578 80.479 43.8884 80.3492L44.4246 78.0732H69.6614V83.9326H49.3463C48.8914 86.8082 48.2205 92.5857 48.8374 98.9727C48.9034 99.6557 48.9819 100.328 49.0731 100.989C48.9813 100.326 48.9024 99.6541 48.8366 98.9728C48.5671 96.1828 48.5154 93.2369 48.6829 90.217C48.7483 89.0368 48.8478 87.8433 48.9785 86.6695C49.0823 85.7368 49.2059 84.8158 49.3457 83.9322V83.9318H69.6606V78.074H44.4251L43.889 80.3493C43.8584 80.4791 43.747 80.9642 43.5981 81.757C43.4086 82.7665 43.2381 83.8466 43.0916 84.9671C42.892 86.493 42.7427 88.055 42.6477 89.6098C42.5304 91.5293 42.4957 93.4489 42.5446 95.3153C42.6678 100.02 43.3167 104.434 44.4736 108.436C45.9104 113.406 48.1412 117.758 51.1039 121.37C58.135 129.944 69.1276 134.291 83.7717 134.292V128.434C71.065 128.434 61.6653 124.835 55.8342 117.739C55.2805 117.065 54.7506 116.349 54.2591 115.61C54.2255 115.56 54.1921 115.509 54.1587 115.459C54.6813 116.255 55.24 117.015 55.8347 117.738C61.6657 124.835 71.0652 128.433 83.7721 128.433H83.7724L83.7725 134.292Z" fill="#FFC34A"/>
</g>
<g id="Group_9">
<path id="Vector_9" d="M71.0094 97.2388C73.8079 97.2388 76.0765 95.0344 76.0765 92.315V78.0735H65.9424V92.315C65.9423 95.0344 68.2109 97.2388 71.0094 97.2388Z" fill="#F2A23A"/>
<path id="Vector_10" d="M71.0089 97.2392C70.3248 97.2392 69.6611 97.109 69.0364 96.8523C68.7361 96.7289 68.4466 96.5761 68.1756 96.3982C67.9073 96.2221 67.655 96.0198 67.4257 95.797C67.1963 95.5741 66.9882 95.3289 66.8069 95.0682C66.6239 94.805 66.4667 94.5235 66.3396 94.2318C66.0754 93.6247 65.9414 92.9799 65.9414 92.3151V78.0733H76.0764V92.3151C76.0764 92.9799 75.9424 93.6247 75.6781 94.2318C75.5512 94.5235 75.394 94.805 75.2109 95.0682C75.0296 95.3289 74.8214 95.5741 74.5921 95.797C74.3628 96.0198 74.1105 96.2221 73.8421 96.3982C73.5713 96.5761 73.2816 96.7288 72.9814 96.8523C72.3566 97.109 71.693 97.2392 71.0089 97.2392ZM65.9422 78.0736V92.3151C65.9422 95.0299 68.2151 97.2385 71.0089 97.2385C73.8027 97.2385 76.0756 95.0298 76.0756 92.3151V78.074H65.9422V78.0736Z" fill="#F2A23A"/>
</g>
</g>
<g id="Group_10">
<path id="Vector_11" d="M140.243 148.128H106.376C89.7273 148.128 76.2305 135.013 76.2305 118.835V78.0738H170.388V118.835C170.388 135.013 156.892 148.128 140.243 148.128Z" fill="#FFC34A"/>
<path id="Vector_12" d="M140.242 148.128H106.376C105.347 148.128 104.311 148.077 103.294 147.977C102.291 147.878 101.284 147.729 100.3 147.533C99.3291 147.34 98.3571 147.097 97.4113 146.811C96.476 146.529 95.5442 146.197 94.6415 145.826C93.7473 145.459 92.8606 145.044 92.0063 144.593C91.158 144.145 90.3218 143.651 89.5207 143.126C87.9244 142.078 86.4233 140.874 85.0591 139.549C83.6949 138.223 82.4564 136.764 81.378 135.213C80.8368 134.435 80.3288 133.622 79.8679 132.798C79.4038 131.968 78.9768 131.106 78.5985 130.237C78.2167 129.36 77.8756 128.455 77.5848 127.546C77.2906 126.627 77.0406 125.682 76.8419 124.738C76.6406 123.782 76.4869 122.804 76.3851 121.83C76.2818 120.842 76.2295 119.834 76.2295 118.835V78.0733H170.388V118.835C170.388 119.834 170.336 120.842 170.233 121.83C170.131 122.804 169.977 123.782 169.776 124.738C169.577 125.682 169.327 126.627 169.033 127.546C168.742 128.455 168.401 129.36 168.019 130.237C167.641 131.106 167.214 131.968 166.75 132.798C166.289 133.622 165.781 134.435 165.24 135.213C164.161 136.764 162.923 138.223 161.559 139.549C160.195 140.874 158.693 142.078 157.097 143.126C156.296 143.651 155.46 144.145 154.612 144.593C153.757 145.044 152.871 145.459 151.976 145.826C151.074 146.197 150.142 146.529 149.207 146.811C148.261 147.097 147.289 147.34 146.318 147.533C145.334 147.729 144.326 147.878 143.324 147.977C142.307 148.077 141.27 148.128 140.242 148.128ZM76.2303 78.0736V118.835C76.2303 134.987 89.7535 148.128 106.376 148.128H140.242C156.864 148.128 170.387 134.987 170.387 118.835V78.074H76.2303V78.0736Z" fill="#FFC34A"/>
</g>
<g id="Group_11">
<path id="Vector_13" d="M101.564 147.752C103.131 147.997 104.736 148.128 106.374 148.128H123.307V78.0736H101.563V147.752H101.564Z" fill="#FFDC82"/>
</g>
<g id="Group_12">
<path id="Vector_14" d="M142.358 158.786H104.258C101.23 158.786 98.7744 156.4 98.7744 153.457C98.7744 150.514 101.23 148.128 104.258 148.128H142.358C145.387 148.128 147.842 150.514 147.842 153.457C147.842 156.4 145.387 158.786 142.358 158.786Z" fill="#F2A23A"/>
<path id="Vector_15" d="M142.357 158.786H104.258C103.886 158.786 103.514 158.75 103.152 158.678C102.8 158.608 102.454 158.503 102.123 158.367C101.798 158.234 101.485 158.068 101.191 157.876C100.901 157.685 100.628 157.466 100.38 157.225C100.132 156.984 99.9063 156.719 99.7101 156.436C99.512 156.152 99.3419 155.847 99.2044 155.531C99.0643 155.21 98.9569 154.873 98.8848 154.531C98.8109 154.18 98.7734 153.818 98.7734 153.457C98.7734 153.095 98.8109 152.734 98.8848 152.383C98.9569 152.041 99.0644 151.704 99.2044 151.382C99.3419 151.067 99.512 150.762 99.7101 150.477C99.9063 150.195 100.132 149.93 100.38 149.689C100.628 149.447 100.901 149.228 101.191 149.038C101.485 148.845 101.798 148.68 102.123 148.546C102.454 148.41 102.8 148.306 103.152 148.236C103.514 148.164 103.886 148.128 104.258 148.128H142.357C142.729 148.128 143.101 148.164 143.462 148.236C143.815 148.306 144.161 148.41 144.492 148.546C144.817 148.68 145.13 148.845 145.423 149.038C145.714 149.228 145.987 149.447 146.235 149.689C146.483 149.93 146.709 150.195 146.905 150.477C147.103 150.762 147.273 151.067 147.411 151.382C147.55 151.704 147.658 152.041 147.73 152.383C147.804 152.734 147.841 153.095 147.841 153.457C147.841 153.818 147.804 154.18 147.73 154.531C147.658 154.873 147.55 155.21 147.411 155.531C147.273 155.847 147.103 156.152 146.905 156.436C146.709 156.719 146.483 156.984 146.235 157.225C145.987 157.466 145.714 157.685 145.423 157.876C145.13 158.068 144.817 158.234 144.492 158.367C144.161 158.503 143.815 158.608 143.462 158.678C143.101 158.75 142.729 158.786 142.357 158.786ZM104.258 148.128C101.234 148.128 98.7742 150.519 98.7742 153.457C98.7742 156.395 101.234 158.785 104.258 158.785H142.357C145.381 158.785 147.841 156.395 147.841 153.457C147.841 150.519 145.381 148.128 142.357 148.128H104.258Z" fill="#F2A23A"/>
</g>
<g id="Group_13">
<path id="Vector_16" d="M142.358 198.178H104.258C101.23 198.178 98.7744 195.792 98.7744 192.849C98.7744 189.906 101.23 187.52 104.258 187.52H142.358C145.387 187.52 147.842 189.906 147.842 192.849C147.842 195.792 145.387 198.178 142.358 198.178Z" fill="#F2A23A"/>
<path id="Vector_17" d="M142.357 198.178H104.258C103.886 198.178 103.514 198.142 103.152 198.07C102.8 198 102.454 197.895 102.123 197.759C101.798 197.626 101.485 197.461 101.191 197.268C100.901 197.077 100.628 196.859 100.38 196.617C100.132 196.376 99.9063 196.111 99.7101 195.829C99.512 195.544 99.3419 195.239 99.2044 194.923C99.0643 194.602 98.9569 194.265 98.8848 193.923C98.8109 193.572 98.7734 193.211 98.7734 192.849C98.7734 192.487 98.8109 192.126 98.8848 191.775C98.9569 191.433 99.0644 191.096 99.2044 190.775C99.3419 190.459 99.512 190.154 99.7101 189.869C99.9063 189.587 100.132 189.322 100.38 189.081C100.628 188.839 100.901 188.62 101.191 188.43C101.485 188.237 101.798 188.072 102.123 187.939C102.454 187.803 102.8 187.698 103.152 187.628C103.514 187.556 103.886 187.52 104.258 187.52H142.357C142.729 187.52 143.101 187.556 143.462 187.628C143.815 187.698 144.161 187.803 144.492 187.939C144.817 188.072 145.13 188.237 145.423 188.43C145.714 188.621 145.987 188.839 146.235 189.081C146.483 189.322 146.709 189.587 146.905 189.869C147.103 190.154 147.273 190.459 147.411 190.775C147.55 191.096 147.658 191.433 147.73 191.775C147.804 192.126 147.841 192.487 147.841 192.849C147.841 193.211 147.804 193.572 147.73 193.923C147.658 194.265 147.55 194.602 147.411 194.923C147.273 195.239 147.103 195.544 146.905 195.829C146.709 196.111 146.483 196.376 146.235 196.617C145.987 196.859 145.714 197.078 145.423 197.268C145.13 197.461 144.817 197.626 144.492 197.759C144.161 197.895 143.815 198 143.462 198.07C143.101 198.142 142.729 198.178 142.357 198.178ZM104.258 187.52C101.234 187.52 98.7742 189.911 98.7742 192.849C98.7742 195.787 101.234 198.177 104.258 198.177H142.357C145.381 198.177 147.841 195.787 147.841 192.849C147.841 189.911 145.381 187.52 142.357 187.52H104.258Z" fill="#F2A23A"/>
</g>
<g id="Group_14">
<path id="Vector_18" d="M144.806 210.205H101.812C98.3947 210.205 95.624 207.512 95.624 204.191C95.624 200.87 98.3947 198.178 101.812 198.178H144.806C148.223 198.178 150.994 200.87 150.994 204.191C150.994 207.512 148.224 210.205 144.806 210.205Z" fill="#F2A23A"/>
<path id="Vector_19" d="M144.805 210.205H101.812C101.392 210.205 100.972 210.164 100.565 210.083C100.167 210.004 99.7764 209.886 99.4028 209.732C99.0361 209.582 98.6824 209.395 98.3516 209.178C98.0239 208.963 97.7157 208.716 97.4357 208.444C97.1556 208.172 96.9014 207.872 96.68 207.554C96.4564 207.232 96.2645 206.888 96.1094 206.532C95.9514 206.169 95.8301 205.789 95.7488 205.403C95.6653 205.007 95.623 204.599 95.623 204.191C95.623 203.783 95.6653 203.375 95.7488 202.979C95.8301 202.593 95.9514 202.213 96.1094 201.85C96.2645 201.494 96.4564 201.15 96.68 200.829C96.9013 200.51 97.1556 200.211 97.4357 199.939C97.7158 199.667 98.0239 199.42 98.3516 199.205C98.6824 198.987 99.0362 198.801 99.4028 198.65C99.7763 198.497 100.167 198.379 100.565 198.3C100.972 198.219 101.392 198.178 101.812 198.178H144.805C145.225 198.178 145.645 198.219 146.052 198.3C146.45 198.379 146.841 198.497 147.214 198.65C147.581 198.801 147.934 198.987 148.265 199.205C148.593 199.42 148.901 199.667 149.181 199.939C149.461 200.211 149.716 200.51 149.937 200.829C150.16 201.15 150.352 201.494 150.508 201.85C150.666 202.213 150.787 202.593 150.868 202.979C150.952 203.375 150.994 203.783 150.994 204.191C150.994 204.599 150.952 205.007 150.868 205.403C150.787 205.789 150.666 206.169 150.508 206.532C150.352 206.888 150.16 207.232 149.937 207.554C149.716 207.872 149.461 208.172 149.181 208.444C148.901 208.716 148.593 208.963 148.265 209.178C147.934 209.395 147.581 209.582 147.214 209.732C146.841 209.886 146.45 210.004 146.052 210.083C145.645 210.164 145.225 210.205 144.805 210.205ZM101.812 198.178C98.3998 198.178 95.6238 200.876 95.6238 204.191C95.6238 207.507 98.3998 210.204 101.812 210.204H144.805C148.217 210.204 150.993 207.507 150.993 204.191C150.993 200.876 148.217 198.178 144.805 198.178H101.812Z" fill="#F2A23A"/>
</g>
<g id="Group_15">
<path id="Vector_20" d="M154.864 239.996H91.75V216.437C91.75 212.995 94.6217 210.205 98.164 210.205H148.45C151.992 210.205 154.864 212.995 154.864 216.437L154.864 239.996Z" fill="#541A30"/>
<path id="Vector_21" d="M154.865 239.997H91.75V216.437C91.75 216.014 91.7939 215.592 91.8803 215.181C91.9646 214.781 92.0904 214.387 92.2541 214.011C92.4149 213.642 92.6139 213.285 92.8455 212.952C93.075 212.622 93.3385 212.312 93.6288 212.03C93.919 211.748 94.2385 211.492 94.5781 211.269C94.921 211.044 95.2875 210.85 95.6677 210.694C96.0548 210.535 96.4599 210.413 96.8717 210.331C97.2943 210.247 97.7292 210.204 98.1644 210.204H148.45C148.886 210.204 149.321 210.247 149.743 210.331C150.155 210.413 150.56 210.535 150.947 210.694C151.327 210.85 151.694 211.044 152.037 211.269C152.376 211.492 152.696 211.748 152.986 212.03C153.276 212.312 153.54 212.622 153.769 212.952C154.001 213.285 154.2 213.642 154.361 214.011C154.524 214.387 154.65 214.781 154.735 215.181C154.821 215.592 154.865 216.014 154.865 216.437L154.865 239.997ZM91.7503 239.996H154.864V216.437C154.864 213.001 151.987 210.205 148.45 210.205H98.1644C94.6279 210.205 91.7507 213.001 91.7507 216.437V239.996H91.7503Z" fill="#541A30"/>
</g>
<path id="Vector_22" d="M138.838 198.654H107.281C107.01 198.654 106.791 198.441 106.791 198.178C106.791 197.915 107.01 197.702 107.281 197.702H138.838C139.109 197.702 139.328 197.915 139.328 198.178C139.328 198.441 139.109 198.654 138.838 198.654Z" fill="#541A30"/>
</g>
<g id="Group_16">
<path id="Vector_23" d="M138.628 94.5361C134.145 99.0523 129.048 106.046 134.528 111.885C136.562 114.054 139.786 114.783 142.517 113.425C145.656 111.865 147.13 108.288 147.257 105.029C147.333 103.089 144.529 102.103 143.468 103.867C140.682 108.497 137.957 115.394 143.425 119.393C147.496 122.37 153.567 119.339 153.068 114.351C152.885 112.525 150.218 112.372 149.321 113.705C146.086 118.511 148.558 125.254 154.044 127.196C156.533 128.077 157.761 124.268 155.28 123.39C152.225 122.309 151.056 118.419 152.797 115.832C151.548 115.617 150.299 115.401 149.05 115.186C149.125 115.931 148.056 116.488 147.433 116.586C146.099 116.797 145.157 115.732 144.701 114.623C143.472 111.636 145.436 108.5 146.944 105.994C145.681 105.607 144.417 105.22 143.154 104.833C143.084 106.633 142.468 109.028 140.621 109.884C138.947 110.66 137.469 109.476 136.771 108.03C134.825 103.997 138.779 100.125 141.425 97.4604C143.251 95.6213 140.471 92.6802 138.628 94.5361Z" fill="#BE97DC"/>
<path id="Vector_24" d="M136.269 228.038C139.472 225.845 142.119 223.109 144.096 219.815C145.431 217.592 141.883 215.581 140.55 217.8C138.938 220.484 136.815 222.798 134.196 224.591C132.051 226.059 134.101 229.521 136.269 228.038Z" fill="#BE97DC"/>
<path id="Vector_25" d="M91.4493 31.7023C89.1392 33.9607 87.8756 37.0838 88.0668 40.2712C88.2203 42.8296 92.3288 42.8443 92.1748 40.2767C92.0426 38.0734 92.779 36.0651 94.3866 34.4934C96.2481 32.6736 93.3178 29.8756 91.4493 31.7023Z" fill="#D86464"/>
<path id="Vector_26" d="M241.754 102.897C245.23 100.519 247.975 97.5013 250.065 93.9103C251.365 91.6759 247.618 90.0364 246.323 92.2618C244.595 95.2327 242.247 97.679 239.38 99.64C237.219 101.118 239.589 104.378 241.754 102.897Z" fill="#BE97DC"/>
<path id="Vector_27" d="M160.849 27.3115C162.53 30.4604 165.071 32.9806 168.169 34.8319C170.427 36.1804 172.297 32.6247 170.057 31.2865C167.544 29.7848 165.637 27.6566 164.284 25.1224C163.069 22.8455 159.64 25.0463 160.849 27.3115Z" fill="#D86464"/>
<path id="Vector_28" d="M38.5026 31.4662C40.9666 29.9718 43.4306 28.4773 45.8945 26.9828C48.1397 25.6211 45.9659 22.2348 43.7197 23.5971C41.2558 25.0916 38.7917 26.5861 36.3278 28.0806C34.0826 29.4423 36.2564 32.8286 38.5026 31.4662Z" fill="#D86464"/>
<path id="Vector_29" d="M4.42607 120.757C5.26547 119.571 6.10494 118.386 6.94435 117.2C7.57335 116.312 7.11495 114.986 6.20763 114.47C5.18938 113.891 4.02831 114.295 3.39785 115.186C2.55845 116.371 1.71897 117.557 0.87957 118.742C0.250561 119.631 0.709036 120.957 1.61635 121.473C2.6346 122.051 3.79567 121.647 4.42607 120.757Z" fill="#D86464"/>
<path id="Vector_30" d="M212.457 135.827C211.343 139.785 213.433 143.974 217.106 145.856C219.45 147.057 221.215 143.452 218.882 142.256C216.722 141.15 215.874 138.756 216.499 136.534C217.196 134.057 213.149 133.365 212.457 135.827Z" fill="#D86464"/>
<path id="Vector_31" d="M49.4537 202.834C49.8645 205.229 50.2753 207.624 50.6861 210.019C51.1197 212.547 55.0783 211.474 54.6467 208.958C54.236 206.563 53.8252 204.168 53.4144 201.773C52.9808 199.245 49.0221 200.318 49.4537 202.834Z" fill="#D86464"/>
<path id="Vector_32" d="M35.4381 152.503C32.984 148.959 27.5941 147.9 24.1842 150.833C20.8924 153.664 21.149 158.572 24.0232 161.544C24.613 160.392 25.203 159.241 25.7928 158.089C18.2874 156.075 10.7452 164.131 13.3617 171.204C13.637 170.443 13.9123 169.683 14.1876 168.922C11.9525 170.061 9.71738 171.199 7.48223 172.338C5.143 173.529 7.41623 176.856 9.73936 175.672C11.9744 174.534 14.2096 173.395 16.4448 172.257C17.2114 171.866 17.553 170.738 17.2707 169.975C15.655 165.607 20.4098 160.776 24.9625 161.998C27.1254 162.578 28.0045 159.858 26.7321 158.543C25.5441 157.314 25.5335 154.963 26.8717 153.814C28.4377 152.469 30.9299 153.141 32.0066 154.696C33.4813 156.826 36.9165 154.638 35.4381 152.503Z" fill="#75CAC3"/>
<path id="Vector_33" d="M184.658 170.428C181.233 170.189 176.644 170.563 175.63 174.455C174.94 177.104 176.554 180.16 179.562 180.228C179.454 178.913 179.345 177.598 179.237 176.283C176.069 176.932 174.722 180.359 175.845 183.163C177.169 186.47 181.03 187.275 184.248 187.747C183.703 186.728 183.159 185.708 182.614 184.689C178.167 190.012 177.718 197.901 181.461 203.698C182.856 205.859 186.514 204.039 185.107 201.859C182.041 197.111 182.46 191.162 186.088 186.819C187.161 185.535 185.788 183.956 184.454 183.761C183.137 183.567 181.622 183.374 180.503 182.618C179.968 182.258 178.767 180.459 180.093 180.187C182.344 179.726 182.126 176.295 179.768 176.242C179.595 176.238 179.474 175.469 179.779 175.065C180.634 173.934 183.226 174.329 184.452 174.415C187.096 174.599 187.293 170.612 184.658 170.428Z" fill="#75CAC3"/>
<path id="Vector_34" d="M57.0839 97.3539C59.1378 99.3497 61.1917 101.345 63.2455 103.341C65.117 105.16 68.0221 102.338 66.1498 100.519C64.096 98.5233 62.0421 96.5276 59.9882 94.5318C58.1169 92.7133 55.2117 95.5347 57.0839 97.3539Z" fill="#75CAC3"/>
<path id="Vector_35" d="M152.644 66.0128C154.469 67.9507 155.558 70.3534 155.751 72.9795C155.937 75.5268 160.046 75.5467 159.858 72.9795C159.585 69.2631 158.141 65.9427 155.549 63.1907C153.76 61.2917 150.862 64.1202 152.644 66.0128Z" fill="#75CAC3"/>
<path id="Vector_36" d="M123.228 0.0124045C118.494 -0.226477 111.769 2.99338 113.106 8.56749C114.094 12.6832 119.321 15.2691 122.788 12.187C124.344 10.8039 122.558 8.33323 120.684 8.91148C117.568 9.8731 115.366 12.811 115.812 16.0384C116.268 19.3395 119.228 21.4188 122.483 21.6262C121.852 20.6446 121.222 19.6629 120.591 18.6812C118.406 23.0241 120.841 28.2727 125.632 29.5661C128.18 30.2543 129.101 26.3644 126.558 25.6777C124.392 25.0931 123.218 22.541 124.204 20.5824C124.94 19.1183 123.876 17.7371 122.312 17.6374C119.257 17.4428 119.205 13.556 121.904 12.723C121.203 11.6311 120.502 10.5393 119.8 9.44747C118.662 10.4594 116.994 8.10127 117.075 7.15261C117.3 4.48221 121.335 3.8969 123.399 4.00105C126.034 4.13411 125.854 0.14496 123.228 0.0124045Z" fill="#FFDAB6"/>
<path id="Vector_37" d="M29.8724 48.9539C25.5577 49.1632 21.7265 52.2981 21.3234 56.5932C20.9277 60.8086 24.2102 64.7532 28.4294 65.5307C28.2659 64.315 28.1023 63.0991 27.9388 61.8834C24.8796 63.9833 23.1665 67.7223 24.3085 71.323C25.4818 75.0227 29.3317 77.433 33.2637 77.1472C32.7796 76.0117 32.2956 74.8761 31.8116 73.7406C29.0775 76.2265 29.6788 80.2365 32.5044 82.3399C34.6018 83.9011 36.6497 80.4361 34.5774 78.8937C33.7635 78.2878 34.1122 77.1115 34.7158 76.5627C35.9602 75.4312 35.05 73.0262 33.2636 73.156C28.7687 73.4827 26.0167 68.0718 30.0118 65.3295C31.3126 64.4366 31.4105 62.0303 29.5212 61.6821C27.2834 61.2697 25.3121 59.5103 25.3912 57.1507C25.4678 54.8627 27.5947 53.0555 29.8724 52.9449C32.503 52.8173 32.5188 48.8254 29.8724 48.9539Z" fill="#FFDAB6"/>
<path id="Vector_38" d="M208.367 33.3936C206.486 30.5637 203.098 31.8903 201.309 34.1025C199.036 36.9129 197.487 41.565 197.938 45.1195C198.644 50.6932 206.434 54.701 210.355 49.4283C209.173 48.7568 207.991 48.0854 206.808 47.4139C203.489 52.3611 209.793 58.5588 215.017 56.1142C217.397 55 215.316 51.5574 212.944 52.668C211.219 53.475 209.445 50.7837 210.355 49.4283C211.821 47.2443 208.329 45.3689 206.808 47.4139C205.358 49.3642 202.35 46.4719 202.049 45.0005C201.642 43.0094 202.417 40.8957 203.211 39.0889C203.55 38.3188 203.885 37.4151 204.389 36.731C204.598 36.4493 204.84 36.1974 205.114 35.975C205.765 35.7403 205.667 35.5513 204.82 35.4079C206.249 37.5584 209.806 35.5599 208.367 33.3936Z" fill="#FFDAB6"/>
</g>
</g>
</svg>
