<svg width="32" height="32" viewBox="0 0 32 32" fill="none" xmlns="http://www.w3.org/2000/svg">
<path fill-rule="evenodd" clip-rule="evenodd" d="M13.2971 0.687536C14.9824 -0.229179 17.0175 -0.229179 18.7028 0.687536L28.473 6.00205C30.2935 6.99226 31.4267 8.89867 31.4267 10.971V21.029C31.4267 23.1013 30.2935 25.0077 28.473 25.998L18.7028 31.3125C17.0175 32.2292 14.9824 32.2292 13.2971 31.3125L3.52687 25.998C1.70645 25.0077 0.573242 23.1013 0.573242 21.029L0.573242 10.971C0.573242 8.89867 1.70645 6.99226 3.52686 6.00205L13.2971 0.687536Z" fill="#26A17B"/>
<g clip-path="url(#clip0_3606_1599)">
<path d="M16.0002 28.8002C23.0694 28.8002 28.8002 23.0694 28.8002 16.0002C28.8002 8.93095 23.0694 3.2002 16.0002 3.2002C8.93095 3.2002 3.2002 8.93095 3.2002 16.0002C3.2002 23.0694 8.93095 28.8002 16.0002 28.8002Z" fill="#26A17B"/>
<path fill-rule="evenodd" clip-rule="evenodd" d="M17.2976 17.2513V17.2497C17.2096 17.2561 16.756 17.2833 15.744 17.2833C14.936 17.2833 14.3672 17.2593 14.1672 17.2497V17.2521C11.0568 17.1153 8.7352 16.5737 8.7352 15.9257C8.7352 15.2785 11.0568 14.7369 14.1672 14.5977V16.7129C14.3704 16.7273 14.9528 16.7617 15.7576 16.7617C16.7232 16.7617 17.2072 16.7217 17.2976 16.7137V14.5993C20.4016 14.7377 22.7176 15.2793 22.7176 15.9257C22.7176 16.5737 20.4016 17.1137 17.2976 17.2513ZM17.2976 14.3793V12.4865H21.6288V9.6001H9.836V12.4865H14.1672V14.3785C10.6472 14.5401 8 15.2377 8 16.0729C8 16.9081 10.6472 17.6049 14.1672 17.7673V23.8329H17.2976V17.7657C20.812 17.6041 23.4528 16.9073 23.4528 16.0729C23.4528 15.2385 20.812 14.5417 17.2976 14.3793Z" fill="white"/>
</g>
<defs>
<clipPath id="clip0_3606_1599">
<rect width="25.6" height="25.6" fill="white" transform="translate(3.2002 3.2002)"/>
</clipPath>
</defs>
</svg>
