<svg width="22" height="21" viewBox="0 0 22 21" fill="none" xmlns="http://www.w3.org/2000/svg">
<g id="Layer 2">
<path id="Vector" d="M20.1871 8.507C19.8623 8.31819 19.5705 8.0777 19.3231 7.795C19.3481 7.40141 19.4418 7.01525 19.6001 6.654C19.8911 5.833 20.2201 4.903 19.6921 4.18C19.1641 3.457 18.1671 3.48 17.2921 3.5C16.9054 3.53978 16.5148 3.5134 16.1371 3.422C15.9358 3.09451 15.7921 2.73498 15.7121 2.359C15.4641 1.514 15.1811 0.558999 14.3121 0.272999C13.4741 0.00299913 12.6981 0.596999 12.0121 1.119C11.7161 1.38932 11.3731 1.60317 11.0001 1.75C10.6232 1.60437 10.2764 1.39046 9.97707 1.119C9.29307 0.599999 8.52007 -8.04663e-07 7.67807 0.273999C6.81107 0.555999 6.52807 1.514 6.27807 2.359C6.1982 2.73376 6.05588 3.09243 5.85707 3.42C5.47859 3.51116 5.0875 3.5382 4.70007 3.5C3.82207 3.476 2.83307 3.45 2.30007 4.18C1.76707 4.91 2.10007 5.833 2.39207 6.653C2.55251 7.01371 2.64765 7.40003 2.67307 7.794C2.42615 8.07708 2.13464 8.31791 1.81007 8.507C1.07807 9.007 0.24707 9.576 0.24707 10.5C0.24707 11.424 1.07807 11.991 1.81007 12.493C2.13457 12.6818 2.42607 12.9223 2.67307 13.205C2.65033 13.5988 2.55789 13.9855 2.40007 14.347C2.11007 15.167 1.78207 16.097 2.30907 16.82C2.83607 17.543 3.83007 17.52 4.70907 17.5C5.09604 17.4602 5.48696 17.4866 5.86507 17.578C6.06545 17.9058 6.20881 18.2653 6.28907 18.641C6.53707 19.486 6.82007 20.441 7.68907 20.727C7.82839 20.7717 7.97376 20.7946 8.12007 20.795C8.82328 20.6941 9.47685 20.3743 9.98807 19.881C10.2841 19.6107 10.6271 19.3968 11.0001 19.25C11.377 19.3956 11.7238 19.6095 12.0231 19.881C12.7081 20.404 13.4841 21.001 14.3231 20.726C15.1901 20.444 15.4731 19.486 15.7231 18.642C15.8032 18.2665 15.9466 17.9074 16.1471 17.58C16.5241 17.4882 16.914 17.4612 17.3001 17.5C18.1781 17.521 19.1671 17.55 19.7001 16.82C20.2331 16.09 19.9001 15.167 19.6081 14.346C19.4487 13.9856 19.3536 13.6001 19.3271 13.207C19.5741 12.9237 19.866 12.6828 20.1911 12.494C20.9231 11.994 21.7541 11.424 21.7541 10.5C21.7541 9.576 20.9201 9.008 20.1871 8.507Z" fill="#49ADF4"/>
<path id="Vector_2" d="M9.99985 13.25C9.90135 13.2502 9.80379 13.2308 9.71281 13.1931C9.62184 13.1553 9.53926 13.0999 9.46985 13.03L7.46985 11.03C7.33737 10.8878 7.26524 10.6998 7.26867 10.5055C7.2721 10.3112 7.35081 10.1258 7.48823 9.98838C7.62564 9.85096 7.81102 9.77225 8.00532 9.76882C8.19963 9.7654 8.38767 9.83752 8.52985 9.97L10.0698 11.51L13.5498 8.9C13.709 8.78065 13.909 8.72941 14.1059 8.75754C14.3028 8.78567 14.4805 8.89087 14.5998 9.05C14.7192 9.20913 14.7704 9.40915 14.7423 9.60607C14.7142 9.80298 14.609 9.98065 14.4498 10.1L10.4498 13.1C10.32 13.1973 10.1621 13.2499 9.99985 13.25Z" fill="white"/>
</g>
</svg>
