<svg width="208" height="160" viewBox="0 0 208 160" fill="none" xmlns="http://www.w3.org/2000/svg">
<g id="Yes">
<g id="sticker_background" filter="url(#filter0_d_402_11546)">
<path d="M69.6392 136.982C73.7988 130.817 82.4192 114.249 89.3939 100.204C94.4612 103.284 101.921 106.138 110.736 103.34C113.466 102.473 115.545 101.236 120.006 97.8204C121.719 96.5091 124.225 94.5193 127.003 92.0896C132.389 94.597 138.127 94.5108 142.758 93.0407C144.901 92.3604 146.974 91.3482 148.914 90.0354C154.597 86.1933 162.27 80.7311 166.552 76.5247C166.991 76.0937 167.485 75.6326 168.01 75.1393C170.379 72.9161 173.329 70.1478 175.73 66.8259C183.562 55.9913 180.288 46.4944 178.517 42.9146C178.335 42.5451 178.147 42.1806 177.956 41.8223C181.219 38.4513 183.215 33.9981 183.438 29.1065C183.814 20.769 178.901 13.215 170.927 9.86514C163.772 6.85615 156.482 6.49299 149.259 8.78589C142.759 10.8493 138.191 13.4517 131.802 18.7324C130.463 19.839 128.384 21.6824 126.338 23.5689C124.145 22.9276 122.283 22.6284 121.183 22.4518C112.317 21.0298 108.342 22.2914 107.037 22.7059C104.335 23.5633 100.714 25.2338 95.611 30.1793C92.2877 29.3522 88.7165 29.4246 85.2863 30.5003C81.1447 31.7887 73.9533 33.9891 73.9459 33.9914C71.2564 34.8246 68.8021 36.2689 66.8102 38.1779C60.907 37.2503 55.4845 38.8797 52.575 39.7539C52.1495 39.8815 51.4372 40.0951 51.1626 40.1611C50.6863 40.276 50.2055 40.4105 49.734 40.5602C43.0713 42.6751 37.8906 47.6541 28.4409 57.731C27.7494 58.4689 26.2485 60.0691 25.4995 60.8247C20.917 64.6086 18.5587 70.4169 19.0959 76.2336C19.0948 76.5825 19.1041 76.9306 19.1234 77.2805C19.4186 82.5594 22.0364 87.4352 26.2729 90.5979C26.8942 91.0616 27.5141 91.4975 28.1334 91.9075C27.7162 98.6181 29.3035 103.975 31.9391 108.057C29.0571 109.836 26.6923 112.343 25.0757 115.385C22.7472 119.764 21.0436 126.883 26.1508 135.934C30.8953 144.337 38.5403 149.353 47.118 149.695C49.7855 149.802 52.4403 149.444 55.0075 148.629C60.7276 146.814 65.65 142.894 69.6392 136.982Z" fill="white"/>
<path d="M69.6392 136.982C73.7988 130.817 82.4192 114.249 89.3939 100.204C94.4612 103.284 101.921 106.138 110.736 103.34C113.466 102.473 115.545 101.236 120.006 97.8204C121.719 96.5091 124.225 94.5193 127.003 92.0896C132.389 94.597 138.127 94.5108 142.758 93.0407C144.901 92.3604 146.974 91.3482 148.914 90.0354C154.597 86.1933 162.27 80.7311 166.552 76.5247C166.991 76.0937 167.485 75.6326 168.01 75.1393C170.379 72.9161 173.329 70.1478 175.73 66.8259C183.562 55.9913 180.288 46.4944 178.517 42.9146C178.335 42.5451 178.147 42.1806 177.956 41.8223C181.219 38.4513 183.215 33.9981 183.438 29.1065C183.814 20.769 178.901 13.215 170.927 9.86514C163.772 6.85615 156.482 6.49299 149.259 8.78589C142.759 10.8493 138.191 13.4517 131.802 18.7324C130.463 19.839 128.384 21.6824 126.338 23.5689C124.145 22.9276 122.283 22.6284 121.183 22.4518C112.317 21.0298 108.342 22.2914 107.037 22.7059C104.335 23.5633 100.714 25.2338 95.611 30.1793C92.2877 29.3522 88.7165 29.4246 85.2863 30.5003C81.1447 31.7887 73.9533 33.9891 73.9459 33.9914C71.2564 34.8246 68.8021 36.2689 66.8102 38.1779C60.907 37.2503 55.4845 38.8797 52.575 39.7539C52.1495 39.8815 51.4372 40.0951 51.1626 40.1611C50.6863 40.276 50.2055 40.4105 49.734 40.5602C43.0713 42.6751 37.8906 47.6541 28.4409 57.731C27.7494 58.4689 26.2485 60.0691 25.4995 60.8247C20.917 64.6086 18.5587 70.4169 19.0959 76.2336C19.0948 76.5825 19.1041 76.9306 19.1234 77.2805C19.4186 82.5594 22.0364 87.4352 26.2729 90.5979C26.8942 91.0616 27.5141 91.4975 28.1334 91.9075C27.7162 98.6181 29.3035 103.975 31.9391 108.057C29.0571 109.836 26.6923 112.343 25.0757 115.385C22.7472 119.764 21.0436 126.883 26.1508 135.934C30.8953 144.337 38.5403 149.353 47.118 149.695C49.7855 149.802 52.4403 149.444 55.0075 148.629C60.7276 146.814 65.65 142.894 69.6392 136.982Z" stroke="#E2E2E2" stroke-width="3" stroke-miterlimit="10"/>
</g>
<g id="Yes_2">
<g id="Yes_shadow">
<path id="Vector" d="M90.7623 43.8521C86.132 45.2928 78.0471 47.7662 78.0471 47.7662C75.7186 54.3797 72.1349 60.4245 69.1842 65.2131C63.1391 75.0197 57.5854 80.7858 55.1478 83.1935C55.5448 80.8619 57.6743 75.3703 59.2969 71.1864C61.4912 65.5293 63.5638 60.1841 63.853 57.4365C64.0315 55.7431 63.6562 54.4976 62.7374 53.7361C60.8773 52.1952 57.4866 53.2132 54.2082 54.1984C53.2746 54.4788 52.3925 54.7422 51.5923 54.9338C48.6273 55.6494 42.8616 61.6001 36.1715 68.7343C34.0376 71.0102 31.6166 73.5839 31.0787 73.8893C31.0806 73.8887 31.241 73.7885 31.4931 73.8132L31.3048 75.6352L31.1594 75.7716C32.7568 76.9636 35.6433 78.8093 37.1969 78.3162L37.3034 78.2824C38.8457 77.7928 39.9802 77.3758 43.0339 73.4141C46.1611 69.3605 49.1316 65.974 50.8374 64.2905C50.216 66.2035 48.9909 69.2399 48.0903 71.4712C46.9719 74.2427 45.9152 76.8607 45.5523 78.2268C45.4241 78.7122 45.108 79.5896 44.707 80.7C42.4913 86.8489 37.8792 99.6446 44.6867 102.287C48.9778 103.952 64.0202 85.1414 64.2725 84.8108C57.8486 96.4951 46.9974 118.503 40.0637 126.066L40.0067 126.133C39.7473 126.472 38.7977 127.457 37.8757 127.542L37.6037 127.564C36.8112 127.626 35.9128 127.699 35.4792 128.514C35.0061 129.404 35.4704 130.565 36.433 132.271C37.2916 133.791 39.673 137.343 43.2455 137.486C43.9026 137.513 44.5566 137.422 45.2065 137.216C47.1944 136.585 49.1406 134.87 51.0144 132.091C57.0717 123.114 75.9494 85.3932 81.5169 72.9193C83.6863 68.0582 90.3286 50.424 91.8049 44.6777C92.1352 43.3906 90.8879 43.8129 90.7623 43.8521Z" fill="#73187F"/>
<path id="Vector_2" d="M129.314 52.5972C129.03 52.4195 128.689 52.3744 128.377 52.4735C127.961 52.6053 127.852 52.7045 124.564 56.447C119.302 62.4383 106.979 76.4675 101.969 78.0587C101.871 78.0897 101.777 78.1156 101.685 78.1349C101.529 78.1699 100.935 77.2755 100.853 76.0459C101.272 75.7261 101.707 75.3818 102.151 75.017C110.29 68.3288 126.622 53.3732 130.172 44.6425L130.235 44.4037C130.253 44.276 130.645 41.2389 128.845 38.4997C126.842 35.4541 116.057 34.8335 114.999 35.1692C111.097 36.4081 101.513 47.8564 97.7111 54.9805C93.6898 62.5122 91.7488 68.2062 91.6385 72.8182C90.5047 73.4188 89.2003 74.0937 87.6641 74.8867L86.4283 75.5245L87.4334 76.4856C87.4843 76.5346 92.093 79.3336 93.1327 79.4136C93.8023 80.5921 94.7001 81.6413 95.8086 82.5389C100.279 86.1608 103.561 88.0379 107.104 86.9133C108.322 86.5266 130.889 69.766 131.57 61.2547L131.564 61.0355C130.458 53.3161 129.686 52.8309 129.314 52.5972ZM106.692 57.9832C111.528 50.5098 116.914 44.6541 119.789 43.7413C120.086 43.6471 120.494 43.5656 120.754 43.7148C121.077 43.8996 121.142 44.0933 121.163 44.2739C121.488 46.9758 113.633 54.4429 107.897 59.895C107.255 60.5055 106.616 61.1128 105.987 61.7126L104.895 62.758C104.386 63.2451 103.915 63.6949 103.476 64.1145C104.377 61.9558 105.464 59.8806 106.692 57.9832Z" fill="#73187F"/>
<path id="Vector_3" d="M172.27 20.2867C170.018 19.3398 166.494 18.2501 161.896 19.7097C157.756 21.0237 154.792 22.4704 149.144 27.1393C146.148 29.615 136.281 38.6194 136.176 39.8523L136.166 39.9347C136.064 40.6567 136.063 41.6005 137.342 43.6747C138.821 46.0713 142.038 48.4444 145.086 48.1235C146.143 48.0119 148.219 47.6624 150.622 47.2576C153.967 46.6938 158.131 45.9924 159.364 46.0011C160.481 46.0088 161.074 46.3846 161.185 46.62C161.264 46.7864 161.141 47.0954 160.856 47.4466C159.516 49.1002 151.538 57.0324 142.811 63.3679C138.7 66.3534 136.745 67.0154 135.911 67.2989C135.465 67.4508 135.004 67.6071 134.807 68.1414C134.613 68.6685 134.86 69.0826 135.059 69.415C135.173 69.6064 135.33 69.8688 135.51 70.2637C136.329 72.0504 138.505 76.7963 142.671 75.474C143.234 75.2951 143.816 75.0051 144.399 74.6104C148.109 72.1021 157.173 65.8406 161.196 61.8889C161.785 61.3108 162.448 60.6889 163.142 60.0378C167.517 55.9314 172.475 51.2783 170.609 47.5042C167.944 42.1164 164.367 39.3443 159.977 39.2664C156.213 39.1991 152.554 39.7494 149.882 40.1508C149.363 40.2286 148.818 40.311 148.326 40.3775C150.824 37.6668 156.658 31.8341 158.686 30.5714C159.297 30.191 160.039 29.6569 160.899 29.0378C162.924 27.579 165.699 25.5812 167.943 24.8688C168.658 24.6419 169.271 24.5606 169.763 24.6264C170.642 24.7447 171.481 24.6886 172.188 24.4643C173.305 24.1096 173.996 23.3664 174.037 22.4765C174.057 22.0499 173.923 20.9816 172.27 20.2867Z" fill="#73187F"/>
</g>
<g id="Yes_color">
<path id="Vector_4" d="M86.7554 42.5237C82.1252 43.9644 74.0402 46.4379 74.0402 46.4379C71.7118 53.0513 68.1281 59.0961 65.1773 63.8847C59.1322 73.6914 53.5785 79.4575 51.1409 81.8651C51.538 79.5335 53.6675 74.0419 55.2901 69.8581C57.4843 64.2009 59.557 58.8557 59.8462 56.1081C60.0247 54.4148 59.6494 53.1692 58.7305 52.4077C56.8705 50.8668 53.4798 51.8849 50.2014 52.87C49.2678 53.1504 48.3856 53.4138 47.5854 53.6054C44.6205 54.3211 38.8548 60.2717 32.1647 67.406C30.0308 69.6818 27.6098 72.2556 27.0719 72.5609C27.0738 72.5603 27.2342 72.4601 27.4863 72.4849L27.298 74.3069L27.1525 74.4432C28.7499 75.6353 31.6364 77.481 33.1901 76.9878L33.2966 76.954C34.8389 76.4644 35.9734 76.0474 39.0271 72.0858C42.1542 68.0321 45.1247 64.6456 46.8306 62.9621C46.2092 64.8751 44.9841 67.9115 44.0835 70.1428C42.9651 72.9143 41.9083 75.5323 41.5455 76.8984C41.4172 77.3838 41.1012 78.2612 40.7002 79.3716C38.4844 85.5205 33.8724 98.3163 40.6798 100.959C44.971 102.624 60.0133 83.813 60.2657 83.4824C53.8418 95.1667 42.9906 117.175 36.0569 124.738L35.9999 124.805C35.7405 125.144 34.7909 126.128 33.8688 126.213L33.5969 126.235C32.8044 126.298 31.9059 126.37 31.4724 127.186C30.9993 128.075 31.4636 129.237 32.4262 130.942C33.2848 132.463 35.6661 136.015 39.2386 136.158C39.8958 136.184 40.5498 136.094 41.1996 135.888C43.1875 135.257 45.1337 133.541 47.0076 130.763C53.0648 121.786 71.9426 84.0648 77.5101 71.5909C79.6795 66.7298 86.3217 49.0956 87.798 43.3493C88.1284 42.0622 86.8811 42.4845 86.7554 42.5237Z" fill="#893EFF"/>
<path id="Vector_5" d="M125.307 51.269C125.023 51.0914 124.682 51.0463 124.37 51.1453C123.954 51.2772 123.845 51.3764 120.557 55.1189C115.295 61.1102 102.973 75.1394 97.9621 76.7306C97.8644 76.7616 97.7699 76.7874 97.6782 76.8068C97.5221 76.8418 96.9281 75.9474 96.8458 74.7177C97.2653 74.3979 97.7007 74.0537 98.144 73.6889C106.284 67.0006 122.615 52.0451 126.165 43.3144L126.228 43.0756C126.246 42.9479 126.638 39.9108 124.838 37.1716C122.835 34.126 112.05 33.5054 110.993 33.8411C107.09 35.08 97.5059 46.5283 93.7042 53.6524C89.683 61.1841 87.7419 66.8781 87.6317 71.4901C86.4979 72.0907 85.1934 72.7656 83.6572 73.5585L82.4215 74.1964L83.4266 75.1574C83.4775 75.2065 88.0861 78.0055 89.1258 78.0855C89.7955 79.264 90.6933 80.3132 91.8018 81.2108C96.2727 84.8327 99.5542 86.7098 103.097 85.5852C104.315 85.1985 126.882 68.4378 127.563 59.9266L127.557 59.7074C126.452 51.988 125.679 51.5028 125.307 51.269ZM102.685 56.655C107.521 49.1817 112.907 43.3259 115.783 42.4132C116.079 42.319 116.575 42.1888 116.835 42.3381C117.53 42.7376 117.529 43.318 117.55 43.4986C117.875 46.2005 110.5 54.5935 104.764 60.0456C103.287 61.449 98.198 65.0057 96.7252 66.4132C97.6267 64.2545 101.457 58.5524 102.685 56.655Z" fill="#893EFF"/>
<path id="Vector_6" d="M168.263 18.9586C166.011 18.0117 162.487 16.922 157.889 18.3815C153.75 19.6956 150.786 21.1423 145.137 25.8111C142.142 28.2869 132.274 37.2913 132.17 38.5241L132.159 38.6066C132.057 39.3285 132.057 40.2724 133.336 42.3466C134.815 44.7432 138.031 47.1162 141.079 46.7953C142.136 46.6838 144.212 46.3343 146.615 45.9295C149.961 45.3656 154.124 44.6642 155.358 44.673C156.475 44.6807 157.068 45.0565 157.178 45.2919C157.258 45.4582 157.134 45.7672 156.85 46.1185C155.509 47.7721 147.531 55.7042 138.805 62.0398C134.693 65.0253 132.739 65.6873 131.905 65.9708C131.459 66.1227 130.997 66.279 130.8 66.8132C130.606 67.3404 130.853 67.7545 131.052 68.0869C131.166 68.2782 131.323 68.5407 131.504 68.9356C132.323 70.7223 134.499 75.4681 138.664 74.1459C139.228 73.967 139.809 73.6769 140.393 73.2823C144.102 70.774 153.166 64.5125 157.19 60.5608C157.778 59.9826 158.441 59.3608 159.135 58.7097C163.51 54.6033 168.469 49.9502 166.602 46.1761C163.937 40.7883 160.36 38.0162 155.97 37.9382C152.207 37.871 148.547 38.4212 145.875 38.8226C145.357 38.9005 144.811 38.9828 144.32 39.0494C146.818 36.3387 152.651 30.5059 154.68 29.2433C155.29 28.8628 156.033 28.3287 156.892 27.7097C158.918 26.2508 161.692 24.2531 163.937 23.5406C164.652 23.3138 165.264 23.2325 165.756 23.2983C166.636 23.4166 167.475 23.3604 168.181 23.1362C169.299 22.7814 169.99 22.0383 170.031 21.1484C170.05 20.7218 169.916 19.6535 168.263 18.9586Z" fill="#893EFF"/>
</g>
</g>
</g>
<defs>
<filter id="filter0_d_402_11546" x="13.5205" y="5.80054" width="175.438" height="153.413" filterUnits="userSpaceOnUse" color-interpolation-filters="sRGB">
<feFlood flood-opacity="0" result="BackgroundImageFix"/>
<feColorMatrix in="SourceAlpha" type="matrix" values="0 0 0 0 0 0 0 0 0 0 0 0 0 0 0 0 0 0 127 0" result="hardAlpha"/>
<feOffset dy="4"/>
<feGaussianBlur stdDeviation="2"/>
<feComposite in2="hardAlpha" operator="out"/>
<feColorMatrix type="matrix" values="0 0 0 0 0 0 0 0 0 0 0 0 0 0 0 0 0 0 0.25 0"/>
<feBlend mode="normal" in2="BackgroundImageFix" result="effect1_dropShadow_402_11546"/>
<feBlend mode="normal" in="SourceGraphic" in2="effect1_dropShadow_402_11546" result="shape"/>
</filter>
</defs>
</svg>
